<svg width="720" height="720" xmlns="http://www.w3.org/2000/svg">

 <g>
  <title>background</title>
  <rect fill="none" id="canvas_background" height="402" width="582" y="-1" x="-1"/>
 </g>
 <g>
  <title>Layer 1</title>
  <g id="hqHl3m.tif">
   <g id="svg_1">
    <g id="svg_2">
     <path fill="#ffffff" id="svg_3" d="m357,13c2.4,2 4.5,4.3 6.7,6.4c9,8.6 18.2,17.1 26.9,26c3.3,3.4 6.4,6.9 9.4,10.6c1.5,1.8 3.2,3.5 4.8,5.3c5.6,6.1 10.6,12.6 15.9,18.9c9,10.7 18.4,21 28.5,30.7c8,7.7 16.7,14.7 24.5,22.6c6.2,6.4 12.5,12.6 18.7,19c0.2,0.2 0.3,0.4 0.5,0.5c0.9,0.9 1.6,2.1 2.9,2.5c1.3,0.5 2.2,-0.8 3.3,-1.2c6.9,-2.8 14.8,-1.2 19.3,4.7c0.6,0.8 1.2,1 2.1,0.7c3.8,-1.1 7.6,-1.8 11.1,-3.8c2.3,-1.3 4.3,-2.9 5.3,-5.3c1.9,-4.7 5.4,-7.3 10.4,-8.3c7.9,-1.6 15.5,-4.5 23.4,-6.1c5.7,-1.2 11.5,-1.7 17.3,-2.2c6.1,-0.6 12.3,-0.9 18.4,-1.3c5.7,-0.3 11.5,-0.2 17.2,0.2c6.5,0.5 13,1.3 19.5,2.1c1.8,0.2 3.6,0.5 5.5,0.7c0.8,0.1 1.6,0.3 2.4,0.2c3.5,-0.5 6.8,0.6 10.2,1.1c3.6,0.5 7.3,1.1 10.9,1.3c4,0.2 8,0.4 12,0.8c2.6,0.3 5.1,-0.1 7.7,-0.2c3.8,0 7.7,-0.3 11.5,0.2c0.7,0.1 1.3,-0.1 1.9,-0.2c1.1,-0.2 1.9,0.3 2.4,1.2c0.5,1 -0.2,1.7 -0.8,2.3c-0.7,0.8 -1.7,1.2 -2.7,1.4c-2.4,0.5 -4.9,1 -7.3,1.4c-4.8,0.7 -9.5,2 -14.2,3.2c-6.7,1.7 -13.5,3.1 -20.5,3.6c-4,0.3 -7.9,1.1 -11.9,1.6c-7,0.9 -13.9,2 -20.9,2.7c-5.5,0.6 -10.8,2.2 -16.2,3.2c-4.9,0.8 -9.7,1.8 -14.7,2.1c-7.6,0.5 -15.1,0.9 -22.6,2.3c-4.2,0.8 -8.5,1.4 -12.8,1.5c-1,0 -1.9,0.3 -2.8,0.4c-5,0.9 -10.2,1 -15.3,1.5c-6.9,0.7 -13.8,1.5 -20.6,2.9c-1.2,0.2 -1.5,0.9 -1.5,2c0,2.9 -1,5.5 -2.2,8c-0.9,2.1 -2.5,3.7 -4.2,5.2c-0.8,0.7 -1.7,1.2 -2.7,1.5c-2.3,0.7 -2.3,0.7 -2.2,2.9c0.3,8 1,15.9 1.9,23.9c0.9,8.5 1.3,17.1 1.2,25.6c-0.1,5 0.4,10.1 0.7,15.1c0.2,3.4 0.2,6.9 0.3,10.3c0.3,6.5 0.8,13.1 1.1,19.6c0.3,5.4 0.4,10.9 0.7,16.3c0.2,6.1 0.3,12.2 0.6,18.2c0.4,8.2 0,16.5 0.2,24.7c0.2,9.8 -0.1,19.7 0.5,29.5c0.5,7.8 0.4,15.7 0.7,23.5c0.3,7.2 0.2,14.4 0.5,21.6c0.3,5.5 0.2,11 0.4,16.5c0.4,9.2 0.9,18.3 1.3,27.5c0.3,8 0.9,16 1.1,23.9c0.2,6.5 0.5,13.1 0.9,19.6c0.5,7.5 0.5,15 1.2,22.5c0.2,2 0.1,4 0.1,6c0,0.9 0.3,1.6 1.2,1.8c1.2,0.2 2.4,0.5 3.5,-0.3c0.4,-0.3 0.4,-0.9 0.4,-1.3c-0.1,-1.9 -0.1,-3.8 -0.2,-5.8c-0.2,-4.6 -0.5,-9.1 -0.7,-13.7c-0.1,-2.3 0.2,-2.6 2.6,-2.6c4.8,0 9.6,0 14.4,0c2.5,0 2.8,0.3 2.7,2.8c-0.2,7.7 -0.6,15.3 -0.8,23c-0.1,3.6 -0.1,7.2 -0.2,10.8c-0.1,2.6 -0.3,5.1 -0.3,7.7c0,2 0.2,2.2 2.2,2.2c3.1,0 6.2,0 9.4,0c1.8,0 2,-0.3 2.1,-2.1c0.1,-1.1 0.1,-2.2 0,-3.4c-0.1,-1.4 0.5,-2.4 1.7,-3.2c2.3,-1.5 4.4,-3.2 6.8,-4.6c1.9,-1.2 2.7,-2.6 2.6,-4.9c-0.2,-4.5 -0.1,-9 0,-13.4c0,-0.6 0,-1.3 0,-1.9c0,-1.1 0.6,-1.6 1.6,-1.6c4.1,0 8.2,0 12.2,0c1.1,0 1.6,0.5 1.7,1.6c0.1,1.3 0.3,2.5 0.3,3.8c0.1,2.4 0,4.8 0.4,7.2c0.3,1.7 0.4,1.9 2.1,2c0.5,0 1,0 1.4,0c1,0 1.4,-0.5 1.3,-1.5c-0.2,-1.9 -0.4,-3.8 -0.6,-5.7c-1.3,-10.7 -2.6,-21.4 -4,-32.1c-0.1,-0.5 -0.1,-1 -0.2,-1.4c0,-0.8 0.4,-1.2 1.1,-1.3c0.3,-0.1 0.6,-0.1 1,-0.1c6.8,0 13.6,-0.7 20.4,-0.5c0.2,0 0.5,0 0.7,0c1.5,0.1 1.8,0.4 1.9,1.9c0.1,0.7 0,1.4 0,2.2c0,18.1 0,36.2 0,54.2c0,0.6 0,1.3 0,1.9c0.1,1.9 0.2,2.1 2,2.2c3.1,0.1 6.2,0.1 9.4,0.2c1.5,0 1.7,-0.2 1.8,-1.9c0,-3 0,-5.9 -0.1,-8.9c-0.3,-4.8 -0.2,-9.6 -0.3,-14.4c0,-2 0.3,-2.3 2.4,-2.3c3,0 6.1,0 9.1,0c3.9,0 3.5,0.5 5.3,-3.5c5.2,-11.3 9.7,-22.8 13.4,-34.6c5.5,-17.3 9.4,-34.9 11.5,-52.9c0.2,-1.6 0.3,-3.2 0.6,-4.8c0.2,-1 0.9,-1.2 1.5,-0.4c1.2,1.4 2.7,2.3 4.2,3.2c1.7,1.1 2.2,2.5 1.9,4.5c-1,6.9 -2,13.8 -3.4,20.6c-4.5,22.6 -11.6,44.4 -21,65.4c-4.9,10.8 -10.4,21.3 -16.5,31.5c-0.2,0.4 -0.5,0.8 -0.8,1.2c-0.5,0.8 -1.1,1.3 -2.2,1c-1.1,-0.4 -2.1,0 -2.7,0.9c-0.7,1 -0.8,2.2 0,3.1c1,1.1 0.5,2 -0.1,3c-6.3,9.6 -13,18.8 -20.3,27.7c-3.3,3.9 -6.6,7.8 -10.1,11.6c-1.1,1.2 -2.2,1.7 -3.8,1.6c-4.5,-0.3 -9.1,-0.5 -13.6,-0.9c-3.3,-0.3 -6.5,-0.3 -9.8,-0.5c-5.1,-0.4 -10.2,-0.5 -15.3,-0.6c-8,-0.2 -16,-0.3 -24,-0.6c-10.9,-0.4 -21.9,-0.5 -32.8,-1c-18,-0.8 -36,-1.1 -54,-0.7c-11.2,0.2 -22.4,0.8 -33.6,0.9c-11.3,0 -22.5,0.4 -33.8,0.6c-8.9,0.2 -17.9,0.6 -26.8,1c-8.9,0.4 -17.7,0.7 -26.6,0.9c-6.9,0.2 -13.9,0.5 -20.9,0.5c-8.1,0 -16.1,0.6 -24.2,0.4c-2.7,0 -5.4,0.2 -8.1,0.2c-2.7,0.1 -5.4,0 -8.1,-0.1c-1.1,0 -2.2,0.2 -3.3,0.2c-6,-0.5 -12,-0.2 -17.9,-0.7c-3.5,-0.3 -7,-0.3 -10.5,0.2c-2.4,0.3 -4.8,-0.3 -7.2,-0.3c-3.8,0 -7.7,-0.3 -11.5,-0.6c-3.5,-0.2 -7,-0.5 -10.5,-0.6c-6.4,-0.2 -12.7,-1.3 -19.1,-1.7c-10.1,-0.6 -20.2,-1.9 -30.3,-2.6c-2.9,-0.2 -5.9,-0.7 -8.8,-0.9c-1.8,-0.1 -2.9,-1.2 -4,-2.4c-5.1,-6.1 -10,-12.3 -14.7,-18.7c-10.4,-14.3 -19.5,-29.5 -27.2,-45.4c-12.6,-25.8 -21.4,-52.9 -26.3,-81.2c-1.3,-7.4 -2.2,-14.9 -3.1,-22.3c0,-0.2 -0.1,-0.3 -0.1,-0.5c0,-0.5 -0.2,-1 0.4,-1.3c0.4,-0.2 0.7,0.2 1,0.4c1.5,1.1 3,2.2 4.4,3.3c0.5,0.3 0.9,0.7 1.4,0.9c1.4,0.6 1.8,1.6 1.9,3c3.4,28.2 10.7,55.4 22,81.5c4.3,10.1 9.2,19.9 14.7,29.4c0.3,0.6 0.5,1.3 1.5,1.8c-0.2,-2.8 -0.4,-5.3 -0.6,-7.9c-0.6,-6.4 -1.1,-12.7 -1.7,-19.1c-0.3,-3.1 -0.6,-6.2 -0.8,-9.3c-0.1,-0.6 -0.1,-1.1 -0.1,-1.7c-0.1,-2.5 0.1,-2.7 2.7,-2.8c8,0 16,0 24,0c2.6,0 2.7,0.2 2.8,2.9c0.3,12.5 0.4,25 0.5,37.4c0,0.2 0,0.3 0,0.5c0,2.9 0.1,2.9 3,3c6.9,0.3 13.8,0.3 20.6,0.3c2.3,0 2.4,0 2.3,2.4c0,1 0.1,1.9 0.7,2.7c1.1,1.5 2.1,3 3.1,4.5c0.6,0.9 3,1.3 3.9,0.7c0.6,-0.3 0.5,-0.9 0.6,-1.5c0.7,-5.3 0.6,-10.7 0.6,-16c0,-1 0,-2.1 -1,-2.8c-0.6,-0.4 -0.7,-1 -0.8,-1.7c0,-0.4 -0.1,-0.8 -0.1,-1.2c-0.2,-12.2 -0.4,-24.5 -0.7,-36.7c-0.1,-2.5 0.8,-4.7 1.7,-6.9c0.4,-1.1 1,-1.2 1.6,-0.1c0.9,1.7 1.7,3.4 2.7,5.3c1.9,-2.2 3.6,-4.2 5.4,-6.3c3.5,-4.1 6.9,-8.2 10.4,-12.3c1.1,-1.2 1.6,-2.5 1.5,-4.1c0,-1 -0.3,-2.1 0.8,-2.9c0.9,1 0.7,2.2 0.7,3.2c0,1.2 0.3,2.1 1.2,3c5.5,5.4 10.6,11.3 16.2,16.7c0.4,0.4 0.7,0.9 1.4,1c0.7,-1.3 1.3,-2.7 2,-4c0.7,-1.2 1.1,-1.2 1.9,-0.1c1.4,1.8 2.2,3.9 2.2,6.2c0,0.6 -0.2,1.3 0.6,1.9c1.7,-1.2 3.2,-2.7 4.8,-4.2c2.5,-2.4 2.2,-2.3 4.7,-0.1c1.4,1.2 2.7,2.5 4.1,3.7c1.3,1.1 1.3,1.1 2.4,-0.3c4.4,-5.4 8.7,-10.8 13.1,-16.3c1.6,-2 3.2,-4 4.8,-6c1,-1.2 1.3,-1.2 2.5,-0.1c0.6,0.5 1.1,1.1 1.7,1.7c0.4,0.4 0.9,0.8 1.4,0.3c0.5,-0.6 1.3,-1.3 0.7,-2.1c-1.4,-1.6 -2.9,-3.2 -4.5,-4.7c-0.7,-0.6 -1.2,0 -1.6,0.5c-1.6,1.9 -3.1,3.8 -4.7,5.8c-4.4,5.3 -8.7,10.7 -13.1,16c-1.6,1.9 -1.7,1.9 -3.6,0.3c-1.3,-1.2 -2.6,-2.4 -3.9,-3.6c-1.5,-1.3 -1.5,-1.3 -2.9,0c-1.5,1.4 -3,2.8 -4.6,4.2c-0.3,0.3 -0.6,0.5 -1.1,0.8c-1.1,-1.5 0,-3.4 -1.1,-4.8c-1,-1.3 -1.6,-2.9 -2.9,-4.2c-1.2,1 -1.6,2.3 -2.3,3.5c-0.8,1.3 -1.1,1.5 -2.1,0.4c-3,-3 -5.8,-6.1 -8.8,-9.2c-0.8,-0.9 -0.6,-1.5 0.2,-2.2c2.8,-2.4 5.6,-4.8 8.3,-7.2c0.9,-0.8 1.9,-1 3.1,-1.1c3.6,-0.1 7.2,-0.2 10.8,-0.3c9.4,-0.4 18.9,-0.4 28.3,-0.7c10.8,-0.3 21.6,-0.6 32.4,-0.9c2.2,-0.1 4.2,0.4 6.2,1.4c4.4,2.4 9,4.6 13.4,6.9c1.9,1 1.9,1.2 0.8,2.9c-1.8,2.8 -3.6,5.7 -5.5,8.4c-1.3,1.9 -1.7,1.9 -2.6,-0.1c-0.8,-1.6 -1.5,-3.2 -2.2,-4.8c-0.2,-0.4 -0.3,-0.8 -0.7,-0.9c-1.2,1.4 -3.1,6 -3.2,7.8c0,0.4 0,0.8 0,1.2c-0.2,1.9 -0.5,2.1 -2.2,1c-1.6,-1.1 -3.1,-2.2 -4.7,-3.3c-0.6,-0.4 -1.2,-1.1 -1.9,-0.5c-0.8,0.6 -1.8,1.3 -2.1,2.3c-0.2,0.8 0.6,1.5 1.2,1.6c3.1,0.5 5.2,2.8 7.8,4.1c0.6,0.3 1.1,0.9 2,0.9c0.6,-0.6 0.4,-1.3 0.3,-2c-0.2,-2.5 0.9,-4.7 1.8,-6.9c0.5,-1.1 1.1,-1.2 1.7,-0.1c1.3,2.4 3,4.8 2.6,7.8c0.9,-0.1 1.1,-0.8 1.5,-1.3c1.8,-2.5 3.5,-5 5.2,-7.5c3.2,-4.9 6.8,-9.5 10.7,-13.9c1.7,-2 3.2,-4 2.8,-6.8c-0.1,-0.7 -0.2,-1.9 0.8,-2c1.2,0 1.1,1.3 1,2c-0.3,2.8 0.9,4.8 2.7,6.8c5.1,5.6 10,11.4 15,17.1c0.3,0.4 0.6,0.7 1,1.1c1.6,1.7 1.8,1.6 2.5,-0.5c0.6,-1.9 1.4,-3.7 2.8,-5.7c1.3,2.6 2.4,4.9 2.4,7.6c0,6.7 0,13.4 0.2,20.2c0.2,6.7 0.3,13.4 0.4,20.1c0,1.7 -0.2,3.2 -1.4,4.4c-0.8,0.8 -1,1.8 -0.9,2.9c0,3.2 0,6.4 0,9.6c0,2.1 0.2,2.3 2.4,2.3c4.6,0 9.1,0 13.7,0c1,0 2.1,0.1 2.5,-1.3c0.3,-1.1 1.3,-1 2.2,-1.1c1.9,0 3.8,0 5.8,0c1.8,-0.1 2.1,-0.3 2.1,-2.1c-0.1,-5.8 0.2,-11.7 -0.3,-17.5c-0.4,-4.7 -0.2,-4.9 4.5,-4.9c3.4,0 6.7,0 10.1,0c2.2,0 2.3,0.2 2.3,2.3c-0.1,2.7 -0.1,5.4 -0.2,8.2c0,1.6 0,1.6 1.5,1.6c2.6,-0.1 5.1,-0.2 7.7,-0.5c2.6,-0.3 2.7,-0.1 3.7,2.3c0.7,1.6 1.4,3.2 2,4.9c0.5,1.2 1.3,1.7 2.5,1.8c3.9,0.4 3.9,0.4 5.7,-3.2c1.8,-3.8 3.6,-7.7 5.5,-11.5c0.9,-1.8 1.2,-3.6 1,-5.6c-0.2,-2.1 -0.4,-4.1 -0.7,-6.2c-0.2,-2.3 0.1,-2.8 2.3,-2.8c2.6,-0.1 5.3,0 7.9,0c2.1,0 2.4,0.3 2.6,2.3c0.5,6.2 1,12.4 1.5,18.6c0.3,3.8 0.7,7.6 1,11.5c0.1,1.1 0.6,1.6 1.7,1.6c3,0.1 5.9,0.3 8.9,0.3c1.5,0 1.6,-0.2 1.5,-1.7c-0.9,-7.5 -1.9,-15.1 -2.8,-22.6c-1.1,-8.6 -2.1,-17.1 -3.2,-25.7c-0.3,-2.6 -0.7,-5.2 -1,-7.9c-0.2,-1.8 0,-1.9 1.7,-2.1c5.1,-0.5 10.2,-0.4 15.3,-0.5c2.2,0 2.4,0.2 2.4,2.5c-0.1,8.1 0,16.2 -0.4,24.2c-0.2,3.5 -0.1,3.5 3.5,3.5c3.4,0 6.9,0 10.3,0c2,0 2.2,0.2 2.5,2.1c0.9,5.3 1.8,10.6 2.6,15.9c0.4,3 2.7,4.6 4.5,6.5c1,1 2,0.3 2.1,-1.3c0.1,-4.3 0,-8.6 0.2,-12.9c0.2,-5.2 0.5,-10.4 0.8,-15.6c0.1,-1.8 0,-3.5 0.1,-5.3c0.3,-8.3 0.7,-16.6 1.3,-24.9c0.5,-6.2 0.6,-12.5 1.1,-18.7c0.5,-5.9 0.6,-11.8 1.2,-17.7c0.2,-2.3 0.2,-4.6 0,-7c-0.4,-6.7 -0.5,-13.4 0,-20.1c0.1,-2 0.1,-4 0.2,-6c0.2,-5.6 0.3,-11.2 0.5,-16.8c0.2,-4.1 0.7,-8.3 1,-12.4c0.2,-2.9 0.3,-5.9 0.1,-8.8c-0.5,-8.7 -0.3,-17.4 -0.2,-26.1c0.1,-7.5 0.3,-15 0.7,-22.5c0.1,-1.8 0,-3.7 0.1,-5.5c0.5,-11.5 0.4,-23 0.6,-34.5c0.1,-7.4 0.3,-14.9 0.6,-22.3c0.3,-7.8 0.2,-15.7 0.4,-23.5c0.1,-6 0,-12 -0.1,-18c-3,7.2 -7.1,13.8 -10.8,20.6c-3.7,6.8 -6.9,13.9 -10.4,20.8c-2.5,5 -5.5,9.7 -8.4,14.5c-2.1,3.5 -4.6,6.7 -6.3,10.5c-1.5,3.2 -3.9,5.8 -6.2,8.5c-5.1,6.2 -9.9,12.8 -14.9,19.1c-5.4,6.8 -10.9,13.4 -16.7,19.8c-1,1.1 -2.1,2.2 -3.2,3.2c-3.6,3.3 -6.1,7.4 -9.1,11.1c-4.2,5.2 -8.2,10.4 -13.5,14.6c-0.4,0.3 -0.9,0.7 -1.4,1c-0.6,0.4 -1.2,0.4 -1.7,-0.2c-0.5,-0.5 -0.6,-1.1 -0.3,-1.8c1.1,-2.1 2,-4.2 3.2,-6.2c4.1,-6.4 7.3,-13.1 9.8,-20.2c0.5,-1.5 1.3,-2.9 2.1,-4.3c2,-3.6 3.6,-7.3 5.1,-11.1c0.9,-2.3 2,-4.6 3.2,-6.7c2.6,-4.4 4.4,-9.2 6.9,-13.7c4.8,-8.5 9,-17.3 14.2,-25.6c6,-9.6 11.4,-19.6 16.7,-29.7c3.8,-7.2 6.6,-14.9 9.6,-22.5c1.9,-4.7 3.9,-9.3 6.4,-13.7c2.3,-4 4.3,-8.2 5.6,-12.7c1.1,-3.7 2.9,-7.1 4.4,-10.6c2.1,-4.8 4.3,-9.6 6.9,-14.2c0.7,-1.2 0.6,-2.1 -0.2,-3.2c-3.2,-4.6 -3.8,-9.5 -1.2,-14.7c0.9,-1.8 0.8,-1.8 -1,-3c-2.2,-1.5 -3.8,-3.6 -5.8,-5.4c-3.4,-3.1 -6.5,-6.4 -10.5,-8.7c-2.6,-1.6 -5.3,-2.5 -8.3,-2.9c-2.3,-0.3 -4.6,-0.9 -6.8,-1.2c-6.3,-0.9 -11.8,-4 -17.1,-7.3c-7,-4.4 -12.8,-10 -18.2,-16.2c-7,-8 -13.4,-16.5 -20,-24.9c-6.8,-8.6 -12,-18.1 -16.9,-27.8c-1.7,-3.4 -3.3,-6.7 -5.1,-10.1c-0.4,-0.8 -0.8,-1.6 -1.4,-2.2c-3.5,-3.9 -6,-8.4 -8.5,-13c-3,-5.6 -6.7,-10.7 -9.7,-16.2c-1.9,-3.6 -4,-7.1 -5.5,-10.9c-0.3,-0.7 -0.6,-1.5 -0.5,-2.3c1.3,0.5 2.5,0.5 3.6,0.5zm23.5,34.5c0.1,-1.2 0.8,-2.2 1.7,-3c0.6,-0.6 0.5,-1.3 -0.1,-1.9c-0.7,-0.7 -1.1,-0.2 -1.5,0.3c-0.3,0.3 -0.6,0.6 -0.8,0.8c-1.1,1.2 -1.2,1.5 -0.2,2.8c0.2,0.4 0.6,0.7 0.9,1c0.1,0.9 0.6,1.7 1.1,2.4c4.6,8 8.5,16.3 12.7,24.5c3.6,7.2 7.8,14 12.8,20.3c6.7,8.4 13,17.3 20.1,25.3c4.3,4.9 8.9,9.4 14.3,13.1c6.3,4.3 13.1,7.4 20.8,8.1c0.8,0.1 1.6,0.4 2.2,-0.4c1.3,-1.7 3,-2.9 4.6,-4.2c0.4,-0.3 0.7,-0.7 0.5,-1.2c-0.2,-0.5 -0.6,-1 -1.2,-1.1c-0.6,-0.1 -0.8,0.4 -1.2,0.7c-1.4,1.4 -2.8,2.9 -4.3,4.2c-0.7,0.6 -1.6,1.3 -2.5,0.5c-0.9,-0.9 -0.1,-1.8 0.5,-2.5c0.9,-1 1.9,-1.9 2.9,-2.9c0.6,-0.6 1.1,-1.1 1.7,-1.7c0.4,-0.4 0.4,-0.9 0,-1.3c-0.4,-0.4 -0.9,-0.4 -1.3,-0.1c-0.4,0.4 -0.8,0.7 -1.2,1.1c-1.2,1.3 -2.4,2.6 -3.6,3.9c-0.6,0.6 -1.3,1.2 -2.1,0.6c-0.9,-0.6 -0.7,-1.5 -0.3,-2.4c0.2,-0.5 0.6,-0.9 1,-1.3c1.1,-1.3 2.3,-2.4 3.6,-3.5c0.3,-0.3 0.9,-0.5 0.5,-1.2c-0.9,0.3 -1.6,0.9 -2.3,1.6c-1.2,1.2 -2.4,2.4 -3.6,3.5c-0.6,0.6 -1.4,1.4 -2.2,0.5c-0.8,-0.8 -0.4,-1.6 0.2,-2.4c0.6,-0.8 1.3,-1.6 2.1,-2.3c1.1,-0.9 2,-1.8 3,-2.7c0.3,-0.3 0.3,-0.7 0,-1.1c-0.4,-0.4 -0.7,-0.2 -1,0.1c-1.4,1.4 -2.8,2.8 -4.2,4.2c-0.6,0.6 -1.1,1.1 -1.9,1.3c-1.2,0.3 -1.9,-0.3 -1.6,-1.5c0.1,-0.6 0.5,-1 0.8,-1.5c1,-1.4 2.3,-2.4 3.6,-3.4c0.5,-0.4 1.3,-0.6 1.5,-1.4c-0.8,-0.5 -1.2,0.1 -1.6,0.5c-1.6,1.4 -3.2,2.9 -4.9,4.3c-1.1,0.9 -2.3,1.8 -3.8,1.8c-0.5,0 -1,-0.1 -1.2,-0.6c-0.2,-0.5 -0.1,-1 0.3,-1.3c0.8,-0.7 1.5,-1.4 2.3,-2.1c1.8,-1.5 3.6,-2.9 5.4,-4.4c0.4,-0.3 0.8,-0.6 0.6,-1.2c-0.5,-1.3 -2,-1.7 -3,-0.7c-2.1,2.1 -4.5,3.8 -6.5,6.1c-0.2,0.2 -0.5,0.5 -0.7,0.6c-0.4,0.2 -0.9,0.4 -1.4,0.1c-0.6,-0.3 -0.7,-0.9 -0.5,-1.5c0.2,-1 0.7,-1.8 1.3,-2.5c1.7,-1.7 3.3,-3.5 5.3,-4.9c0.5,-0.4 1.1,-0.8 0.5,-1.5c-0.6,-0.7 -1.2,-1.1 -2.1,-0.3c-0.2,0.2 -0.4,0.5 -0.7,0.7c-2,1.7 -4,3.5 -5.9,5.2c-0.5,0.5 -1.1,0.9 -1.9,1c-0.6,0.1 -1.3,0.1 -1.7,-0.5c-0.5,-0.7 -0.1,-1.3 0.4,-1.7c1,-1 1.9,-1.9 3,-2.8c1.5,-1.3 3.1,-2.6 4.6,-3.9c1,-0.9 0.8,-1.3 -0.4,-2.5c-0.7,-0.7 -1.3,-1.2 -2.1,-0.1c-1.7,2.3 -4.2,3.6 -6.5,5.2c-0.5,0.4 -1.1,0.6 -1.7,0.9c-0.6,0.2 -1.3,0.3 -1.8,-0.3c-0.5,-0.7 -0.1,-1.2 0.4,-1.7c1.2,-1.3 2.5,-2.5 4,-3.4c1.3,-0.9 2.5,-2 3.7,-3.1c0.4,-0.4 0.6,-0.7 0.2,-1.2c-0.4,-0.4 -0.9,-0.7 -1.5,-0.3c-0.3,0.2 -0.5,0.4 -0.7,0.6c-1.9,1.9 -4.2,3.5 -6.3,5.2c-1.6,1.3 -2.5,1.4 -3.2,0.8c-0.7,-0.7 -0.3,-1.8 1.3,-3.2c2,-1.7 4.1,-3.3 6.1,-5c1.1,-0.9 1.1,-1.4 0.1,-2.3c-0.9,-0.8 -1.6,-0.5 -2.3,0.2c-1.9,1.7 -3.8,3.5 -5.7,5.2c-0.5,0.4 -1,0.8 -1.5,1.2c-0.4,0.2 -0.9,0.3 -1.4,-0.1c-0.4,-0.3 -0.4,-0.8 -0.3,-1.3c0.3,-0.9 0.8,-1.7 1.5,-2.4c1.5,-1.6 3.1,-3 4.8,-4.3c1.6,-1.2 1.7,-1.4 0.9,-2.4c-1,-1.2 -1.2,-1.2 -2.7,-0.1c-2.1,1.5 -3.9,3.3 -5.5,5.4c-0.5,0.6 -1.1,1 -1.9,0.6c-0.8,-0.5 -1,-1.3 -0.7,-2.1c0.4,-1 1,-1.8 1.7,-2.6c1.1,-1.1 2.2,-2.3 3.5,-3.2c0.5,-0.4 1.1,-0.7 1.4,-1.3c0.1,-0.2 0.1,-0.5 -0.2,-0.6c-0.1,-0.1 -0.3,-0.1 -0.4,-0.1c-0.6,0.1 -0.9,0.6 -1.4,0.9c-1.4,1.3 -2.8,2.6 -4.2,3.9c-0.8,0.7 -1.9,1.4 -2.8,0.6c-1.1,-0.9 -0.1,-1.9 0.6,-2.7c1.4,-1.7 3.1,-3.3 4.8,-4.7c1,-0.9 1,-1.3 0.1,-2.1c-0.8,-0.9 -1.4,-0.4 -2,0.3c-1.6,1.7 -3.1,3.4 -4.7,5.2c-0.7,0.8 -1.4,1.5 -2.4,2c-0.7,0.4 -1.4,0.5 -2,-0.1c-0.6,-0.6 -0.4,-1.3 -0.1,-2c0.5,-1 1.2,-1.9 2,-2.7c1.5,-1.8 3.3,-3.3 4.9,-4.9c0.4,-0.3 0.9,-0.7 0.4,-1.5c-2,1.6 -4.1,2.9 -5.9,4.6c-0.8,0.8 -1.7,1.5 -2.9,1.7c-1,0.1 -1.7,-0.8 -1.3,-1.7c0.2,-0.5 0.7,-0.9 1,-1.3c1.8,-1.9 3.8,-3.7 6,-5.2c1,-0.7 0.9,-1.3 0,-2.1c-0.7,-0.6 -1.3,-0.3 -1.9,0.2c-1.7,1.4 -3.4,2.9 -4.8,4.7c-0.5,0.6 -1,1.3 -1.6,1.8c-0.5,0.4 -1.3,0.9 -1.9,0.3c-0.6,-0.6 -0.3,-1.3 0,-2c0.1,-0.1 0.1,-0.3 0.2,-0.4c1.7,-2.4 3.5,-4.8 6.3,-6.1c1.7,-0.8 1.4,-1.3 0.3,-2.4c-0.6,-0.6 -1.3,-0.6 -1.9,-0.1c-1.1,1 -2.2,2.1 -3.1,3.3c-0.6,0.8 -1.2,1.5 -2,2c-0.6,0.4 -1.3,0.9 -1.9,0.3c-0.7,-0.6 -0.2,-1.3 0.2,-1.9c0.2,-0.3 0.5,-0.7 0.7,-1c1.4,-1.7 2.7,-3.5 4.7,-4.7c0.4,-0.2 1.2,-0.5 0.7,-1.2c-0.5,-0.6 -1,0 -1.5,0.3c-0.5,0.4 -1,0.8 -1.5,1.2c-1.2,1 -2.4,2.1 -3.6,3.1c-0.6,0.5 -1.1,0.9 -1.8,1.1c-0.5,0.1 -1,0.2 -1.3,-0.2c-0.4,-0.5 -0.4,-1 -0.1,-1.6c0.2,-0.3 0.4,-0.7 0.7,-0.9c1.7,-1.6 3.4,-3.1 5.2,-4.6c0.4,-0.4 0.9,-0.7 1.3,-1.1c0.1,-0.1 0.2,-0.5 0.1,-0.7c-0.1,-0.4 -0.5,-0.4 -0.8,-0.2c-1.2,0.7 -2.5,1.5 -3.4,2.6c-0.7,0.9 -1.5,1.6 -2.5,2.2c-0.6,0.3 -1.2,0.4 -1.7,-0.2c-0.4,-0.5 -0.5,-1.2 -0.1,-1.8c0.3,-0.4 0.6,-0.7 0.9,-1.1c1.2,-1.3 2.4,-2.5 3.9,-3.5c0.8,-0.5 1.2,-1.1 0.4,-1.9c-0.9,-0.9 -1.4,0 -1.9,0.6c-0.8,1.1 -1.8,2 -2.8,2.9c-0.8,0.8 -1.8,1.3 -2.9,1.7c-0.6,0.2 -1.1,0.2 -1.5,-0.3c-0.3,-0.4 -0.3,-0.9 -0.1,-1.4c0.4,-0.8 1,-1.4 1.6,-2.1c1.3,-1.3 2.6,-2.6 4,-3.8c0.7,-0.6 0.7,-1.1 0.1,-1.8c-0.7,-0.8 -1.2,-0.5 -1.8,0.1c-1.2,1.3 -2.5,2.5 -3.9,3.6c-0.9,0.6 -1.7,1.7 -2.9,0.7c-0.7,-0.5 -0.2,-1.5 1,-2.9c1.3,-1.4 2.8,-2.6 4.3,-3.8c0.4,-0.3 0.7,-0.7 0.3,-1.2c-0.4,-0.5 -0.9,-0.6 -1.5,-0.2c-0.9,0.7 -1.8,1.5 -2.8,2.3c-0.7,0.6 -1.3,1.2 -2.2,1.5c-0.4,0.1 -0.8,0.1 -1.1,-0.3c-0.3,-0.3 -0.4,-0.8 -0.2,-1.1c0.2,-0.4 0.6,-0.8 0.9,-1.1c1,-1 2.2,-1.9 3.3,-2.7c1.1,-0.8 1.1,-1.4 0.4,-2.1c-0.9,-0.9 -1.6,-0.5 -2.2,0.2c-0.6,0.7 -1.2,1.5 -1.9,2.2c-0.6,0.6 -1.2,1.3 -2.1,0.7c-0.8,-0.6 -0.3,-1.4 0.1,-2.1c0.7,-1.2 1.6,-2.2 2.6,-3.1c0.5,-0.5 0.7,-1 0.2,-1.7c-0.5,-0.6 -1.1,-0.6 -1.7,-0.1c-0.9,0.8 -1.8,1.6 -2.7,2.3c-0.5,0.4 -1,0.9 -1.7,0.3c-0.6,-0.5 -0.5,-1.2 -0.2,-1.8c0.5,-1 1.2,-1.7 2,-2.3c0.6,-0.5 1.8,-0.8 0.8,-2c-0.8,-1 -1.3,-1 -2.6,-0.1c-0.3,0.2 -0.5,0.4 -0.8,0.5c-0.4,0.3 -0.9,0.5 -1.3,0.1c-0.4,-0.4 -0.3,-0.9 -0.1,-1.3c0.3,-0.8 1,-1.3 1.5,-1.9c0.3,-0.4 0.2,-0.7 -0.1,-1.1c-0.3,-0.3 -0.7,-0.5 -1.1,-0.3c-0.5,0.4 -1,0.8 -1.5,1.2c-0.7,0.5 -1.5,0.6 -2.4,0.1zm34.1,304.4c2,-1.6 3.5,-3.8 5.3,-5.6c5.3,-5.2 9.9,-11.1 14.8,-16.7c4.5,-5.2 8.6,-10.8 12.7,-16.2c0.4,-0.5 1,-1 0.9,-1.7c-0.2,-1.1 0.5,-1.8 1.1,-2.5c6,-8.1 12.2,-16 17.3,-24.7c4.3,-7.3 8.3,-14.8 12,-22.4c3.2,-6.6 6.6,-13.2 10,-19.6c2.2,-4.1 4.6,-8.1 6.2,-12.4c0.7,-2 0.7,-3.8 -0.2,-5.5c-1.3,-2.6 -2.7,-5.1 -4,-7.6c-0.2,-0.4 -0.4,-0.9 -1.1,-0.6c-1.4,0.8 -2.5,0.1 -3.6,-0.6c-1,-0.6 -1.9,-1.2 -2.8,-1.8c-0.4,-0.3 -0.9,-0.6 -1.3,-0.1c-0.5,0.6 0,1.1 0.4,1.4c1.4,1 2.9,2 4.3,3c0.9,0.6 1.9,1.1 2.9,1.8c0.8,0.5 1.4,1.2 0.7,2.2c-0.6,0.9 -1.4,0.5 -2.1,0.1c-1.9,-1.1 -3.7,-2.2 -5.5,-3.4c-0.5,-0.3 -0.9,-0.6 -1.4,-0.9c-0.3,-0.2 -0.6,-0.2 -0.9,0.1c-0.2,0.3 -0.3,0.6 -0.1,0.9c0.3,0.6 0.8,1 1.3,1.3c1.2,0.8 2.5,1.5 3.7,2.2c1.1,0.7 2.2,1.3 3.2,2.1c0.6,0.4 1.1,1 0.7,1.8c-0.5,0.8 -1.2,0.7 -1.9,0.4c-0.7,-0.3 -1.5,-0.7 -2.1,-1.1c-1.8,-1.1 -3.8,-2 -5.6,-3.2c-0.8,-0.6 -1.5,-0.2 -1.8,0.7c-0.2,0.8 0.4,0.9 0.8,1.2c2.5,1.5 5.1,3 7.6,4.5c0.9,0.5 1.8,1.1 2.3,2.1c0.2,0.4 0.4,0.8 0.2,1.1c-0.2,0.4 -0.7,0.4 -1.1,0.3c-1,-0.2 -1.8,-0.6 -2.7,-1.1c-2.6,-1.4 -5.1,-3 -7.5,-4.8c-1.1,-0.8 -1.5,-0.4 -1.9,0.9c1,0.1 1.7,0.4 2.5,0.9c2.5,1.7 5.1,3.4 7.6,5.1c0.5,0.4 1,0.8 1.4,1.3c0.4,0.5 0.9,1.1 0.3,1.7c-0.4,0.5 -1,0.2 -1.5,0c-1,-0.5 -2.1,-0.9 -3,-1.5c-2.8,-1.7 -5.5,-3.5 -8.3,-5.3c-0.8,1.1 -0.8,1.7 0.6,2.4c2.3,1.2 4.5,2.7 6.7,4.1c0.8,0.5 1.5,1.2 1.9,2.1c0.2,0.4 0.4,0.9 0.1,1.4c-0.4,0.5 -0.9,0.3 -1.3,0.1c-0.7,-0.4 -1.4,-0.8 -2.1,-1.2c-2.2,-1.3 -4.4,-2.7 -6.6,-4c-1.1,-0.7 -1.5,-0.5 -2,0.7c-0.6,1.3 -0.5,1.7 0.8,2.5c2.3,1.4 4.6,2.9 6.9,4.3c0.9,0.5 1.8,1.1 2.3,2c0.2,0.3 0.5,0.7 0.2,1.1c-0.3,0.5 -0.8,0.4 -1.3,0.3c-0.4,-0.1 -0.8,-0.2 -1.1,-0.4c-1.8,-0.8 -3.6,-1.7 -5.3,-2.8c-1,-0.7 -2,-1.3 -3,-1.9c-0.9,-0.5 -1.4,-0.2 -1.8,0.8c-0.3,0.8 0,1.2 0.6,1.6c2.4,1.5 4.9,3.1 7.3,4.6c0.5,0.3 1,0.5 1.5,0.8c0.5,0.4 1,0.9 0.7,1.6c-0.3,0.7 -0.9,0.5 -1.5,0.5c-1.2,0 -2.2,-0.6 -3.1,-1.1c-1.8,-1.1 -3.7,-2.3 -5.6,-3.3c-1.2,-0.7 -1.6,-0.5 -2.2,0.8c-0.5,1.1 -0.1,1.8 1,2.3c3.1,1.6 6.1,3.2 9.1,4.8c0.5,0.3 1.3,0.6 1,1.4c-0.3,0.8 -1.1,0.9 -1.8,0.7c-0.7,-0.2 -1.4,-0.5 -2,-0.8c-2.6,-1.2 -5.2,-2.5 -7.8,-3.7c-0.6,-0.3 -1.1,-0.4 -1.4,0.3c-0.3,0.6 -0.2,1.1 0.4,1.4c0.1,0.1 0.3,0.2 0.4,0.3c2.4,1.5 4.8,2.9 7.2,4.3c0.6,0.3 1.1,0.6 1.5,1.1c0.6,0.7 0.3,1.4 -0.6,1.6c-0.7,0.1 -1.3,0 -1.9,-0.3c-1.2,-0.5 -2.3,-1.1 -3.4,-1.8c-1.4,-0.9 -2.9,-1.8 -4.3,-2.6c-0.4,-0.3 -0.9,-0.4 -1.2,0.2c-0.2,0.4 -0.1,0.8 0.2,1.1c0.4,0.4 0.9,0.7 1.3,1c1.4,0.8 2.8,1.6 4.2,2.4c1.1,0.6 2.1,1.3 2.7,2.3c0.3,0.5 1.2,1 0.7,1.6c-0.5,0.8 -1.4,0.2 -2,-0.1c-2.4,-1.2 -4.7,-2.5 -7,-3.7c-0.8,-0.4 -1.7,-1.6 -2.6,-0.1c-0.8,1.5 0.6,1.8 1.3,2.3c2,1.2 4,2.3 6,3.5c1.5,0.9 2.3,2.2 1.7,2.8c-1,0.9 -2,0.1 -2.8,-0.4c-2.2,-1.2 -4.3,-2.4 -6.5,-3.6c-0.6,-0.3 -1.3,-1.1 -1.8,-0.1c-0.5,1 0.5,1.2 1,1.5c1.6,0.9 3.3,1.7 4.9,2.6c1.1,0.6 2.3,1.2 2.9,2.4c0.2,0.4 0.7,0.8 0.2,1.3c-0.3,0.3 -0.8,0.3 -1.1,0.1c-1.3,-0.5 -2.5,-1 -3.7,-1.6c-1.6,-0.8 -3.2,-1.8 -4.9,-2.6c-1,-0.5 -2,0.1 -2.1,1.1c0,0.8 0.6,1.1 1.2,1.4c2.3,1.2 4.6,2.3 6.9,3.4c0.8,0.4 1.6,0.8 2.2,1.4c0.3,0.4 0.6,0.8 0.3,1.3c-0.3,0.5 -0.8,0.6 -1.2,0.5c-0.9,-0.2 -1.9,-0.5 -2.7,-0.9c-2.2,-1 -4.5,-2 -6.6,-3.4c-0.6,-0.4 -1.4,-1.1 -2.1,-0.1c-0.7,1.1 0.3,1.3 0.9,1.7c1.8,1.1 3.7,2.3 5.5,3.4c1.3,0.8 2.2,1.9 3.1,3c0.1,0.2 0.2,0.5 0.1,0.7c-0.1,0.3 -0.5,0.4 -0.8,0.3c-0.4,-0.2 -0.9,-0.4 -1.3,-0.6c-2.5,-1.5 -5.1,-3.1 -7.6,-4.6c-0.6,-0.4 -1.3,-1.3 -2,-0.3c-0.6,1 0.4,1.4 1,1.8c0.1,0.1 0.3,0.2 0.4,0.2c2.3,1.2 4.4,2.7 6.3,4.4c0.5,0.4 1.6,0.6 1.1,1.5c-0.4,0.7 -1.3,0.2 -2,-0.1c-0.8,-0.4 -1.6,-0.8 -2.3,-1.3c-1.6,-1 -3.2,-2.1 -4.8,-3.2c-1,-0.7 -1.6,-0.4 -2.1,0.5c-0.5,0.9 -0.7,1.6 0.4,2.1c2.3,1.2 4.4,2.6 7,3.1c0.6,0.1 1.4,0.2 1.3,1.1c-0.1,0.9 -0.9,1.1 -1.6,1.1c-1.3,0.1 -2.5,-0.3 -3.7,-0.8c-1.3,-0.5 -2.5,-1.2 -3.7,-1.7c-0.8,-0.4 -1.8,-1.3 -2.4,0.1c-0.5,1.2 0.8,1.3 1.5,1.8c1.3,0.8 2.6,1.6 3.9,2.4c1.7,1.1 2.3,1.8 1.7,2.4c-1,1.1 -2.1,0.2 -3,-0.2c-1.5,-0.7 -2.9,-1.6 -4.4,-2.5c-0.8,-0.4 -1.6,-1.1 -2.2,0.1c-0.6,1.1 0.4,1.4 1,1.7c1.8,1 3.5,1.9 5.3,2.8c0.8,0.4 1.5,0.9 2.1,1.6c0.2,0.3 0.4,0.5 0.2,0.9c-0.2,0.4 -0.6,0.5 -1,0.5c-1.3,-0.2 -2.4,-0.8 -3.6,-1.4c-1.5,-0.8 -3.1,-1.7 -4.6,-2.7c-0.8,-0.5 -1.3,-0.4 -1.8,0.4c-0.6,1 -0.5,1.5 0.7,2c2.9,1.4 6,2.7 8.7,4.6c0.5,0.3 1.4,0.5 1,1.3c-0.4,0.9 -1.2,0.4 -1.9,0.2c-0.3,-0.1 -0.6,-0.2 -0.9,-0.4c-2.4,-1.2 -5,-2.1 -7.3,-3.7c-0.3,-0.2 -0.6,-0.3 -0.8,-0.5c-0.6,-0.3 -1.2,-0.5 -1.7,0.3c-0.4,0.8 0.1,1.2 0.7,1.6c0.7,0.5 1.5,0.9 2.2,1.4c1.6,1.1 3.2,2.1 4.8,3.2c0.4,0.3 0.8,0.7 0.3,1.2c-0.3,0.4 -0.7,0.2 -1.1,0c-2.2,-0.9 -4.1,-2.2 -6,-3.5c-0.5,-0.3 -1.1,-0.7 -1.6,-1c-0.4,-0.2 -0.8,0 -1,0.3c-0.2,0.4 -0.3,0.8 0.1,1.1c0.4,0.3 0.8,0.5 1.2,0.8c2.1,1.2 4.1,2.5 6,4c0.6,0.5 2,0.9 1.4,1.8c-0.5,0.9 -1.6,0 -2.4,-0.3c-0.7,-0.3 -1.3,-0.7 -1.9,-1c-1.5,-0.9 -2.9,-1.9 -4.4,-2.9c-0.6,-0.4 -1.3,-0.7 -1.9,0c-0.6,0.8 -0.4,1.5 0.5,2c1.1,0.7 2.2,1.3 3.3,1.9c1.4,0.8 2.7,1.7 4,2.6c0.3,0.2 0.5,0.5 0.3,0.8c-0.2,0.3 -0.5,0.4 -0.8,0.3c-0.5,-0.1 -0.9,-0.3 -1.3,-0.6c-2,-1 -4,-2.1 -5.9,-3.1c-0.4,-0.2 -0.8,-0.5 -1.3,-0.6c-0.2,-0.1 -0.5,0.1 -0.6,0.2c-0.3,0.2 -0.2,0.6 0,0.8c0.3,0.3 0.7,0.7 1.1,0.9c2.4,1.6 4.8,3.1 7.2,4.7c0.7,0.5 1.9,0.7 1.4,1.9c-0.5,1.1 -1.5,0.6 -2.3,0.3c-0.8,-0.3 -1.5,-0.6 -2.2,-1c-1.7,-1 -3.4,-2.1 -5.1,-3.2c-0.5,-0.3 -0.9,-0.6 -1.4,-0.9c-0.3,-0.1 -0.7,-0.1 -0.8,0.2c-0.2,0.3 -0.1,0.7 0.1,0.9c0.6,0.5 1.3,0.9 2,1.3c1.2,0.7 2.4,1.3 3.4,2.3c0.3,0.3 0.4,0.7 0.1,1.1c-0.2,0.3 -0.5,0.4 -0.8,0.3c-0.5,-0.1 -1.1,-0.3 -1.6,-0.5c-1.3,-0.5 -2.5,-1.4 -3.7,-2.1c-0.6,-0.4 -1.3,-0.8 -1.8,0.1c-0.5,0.9 -0.4,1.5 0.5,1.9c1.3,0.7 2.5,1.4 3.8,2.1c0.9,0.5 1.6,1 2.3,1.8c0.3,0.4 0.6,0.8 0.3,1.3c-0.3,0.4 -0.7,0.3 -1.1,0.2c-0.5,-0.2 -1.1,-0.4 -1.6,-0.6c-1.6,-0.7 -3.2,-1.5 -4.7,-2.4c-0.6,-0.4 -1.3,-0.7 -1.8,0.3c-0.4,0.8 0.2,1.1 0.8,1.4c1.4,0.8 2.7,1.7 4,2.6c0.7,0.5 1.3,1.2 1.9,1.8c0.2,0.2 0.2,0.6 0,0.9c-0.2,0.3 -0.5,0.4 -0.8,0.3c-0.6,-0.2 -1.2,-0.4 -1.8,-0.7c-1.4,-0.8 -2.8,-1.6 -4.2,-2.4c-0.5,-0.2 -1.1,-0.8 -1.5,-0.2c-0.4,0.6 0.3,0.9 0.8,1.2c0.2,0.1 0.4,0.2 0.6,0.4c1.1,0.7 2.2,1.3 3.3,2c0.8,0.5 1.6,1.1 2.3,1.7c0.4,0.3 0.9,0.8 0.6,1.4c-0.3,0.6 -0.9,0.5 -1.5,0.3c-0.4,-0.2 -0.9,-0.4 -1.3,-0.5c-2,-0.7 -3.8,-1.8 -5.5,-2.9c-0.4,-0.3 -0.9,-0.5 -1.3,0c-0.3,0.5 0,0.9 0.5,1.2c0.5,0.3 1,0.5 1.5,0.8c1.2,0.6 2.4,1.2 3.6,2c0.7,0.5 1.6,1.2 0.9,2.2c-0.5,0.8 -1.3,0.2 -1.9,-0.1c-1.8,-0.9 -3.6,-1.8 -5.4,-2.7c-0.4,-0.2 -0.8,-0.3 -1.1,0.1c-0.2,0.4 -0.2,0.8 0.1,1.1c0.3,0.3 0.8,0.6 1.2,0.8c1.1,0.7 2.2,1.3 3.3,1.9c0.6,0.4 1.6,0.8 1,1.8c-0.5,0.9 -1.3,0.2 -1.9,-0.1c-1.4,-0.7 -2.8,-1.5 -4.3,-2.2c-0.3,-0.1 -0.7,-0.2 -0.9,0.1c-0.2,0.3 0,0.6 0.3,0.8c0.9,0.5 1.8,1 2.7,1.6c0.6,0.4 1.2,0.8 1.7,1.3c0.3,0.3 0.6,0.8 0.2,1.3c-0.3,0.4 -0.7,0.3 -1.1,0.1c-1.1,-0.6 -2.3,-1.2 -3.4,-1.7c-0.5,-0.3 -1.2,-1 -1.7,-0.3c-0.5,0.8 0.6,0.9 1.1,1.2c0.6,0.4 1.2,0.8 1.8,1.2c0.3,0.2 0.6,0.3 0.8,0.6c0.5,0.4 1.1,0.9 0.6,1.6c-0.4,0.6 -1,0.3 -1.5,0.1c-0.5,-0.2 -1,-0.6 -1.5,-0.8c-0.7,-0.4 -1.3,-1 -2.1,-1c-0.2,0.3 0.1,0.4 0.2,0.6c0.6,0.5 1.2,1 0.8,1.8c-0.6,1 -1.4,0.2 -2.1,0c-0.2,-0.1 -0.3,0 -0.3,0.2c0.1,0.3 0.4,0.4 0.7,0.6c0.7,0.3 1.7,0.6 1.3,1.6c-0.3,1 -1.3,1.1 -2.2,0.8c-0.5,-0.1 -1.1,-0.5 -1.4,0.2c0.2,0.7 0.9,0.7 1.3,1.1c0.3,0.3 0.5,0.7 0.3,1.1c-0.2,0.3 -0.5,0.3 -0.8,0.3c-0.6,0.1 -1.2,-0.7 -2.2,-0.2c1.1,0.8 2.1,1.5 0.7,2.7c-0.4,0.4 0,1.1 -0.1,1.7c-0.8,0 -1.5,0 -2.6,0c0.9,1.6 -1.5,2.1 -1,3.9c1.5,-1.3 2.5,-2.6 3.6,-3.9zm96.2,184.8c0.1,0 0.2,0 0.2,0c0,5.5 0,11 0,16.5c0,3.1 -0.1,6.2 0.4,9.3c0.3,1.8 0.7,2 2.4,1.4c2.5,-0.9 4.8,-2.1 6.8,-3.9c0.8,-0.7 1.1,-1.4 1,-2.5c-0.3,-3.4 -0.6,-6.9 -0.6,-10.3c0,-10.1 -0.5,-20.1 -1,-30.2c-0.4,-8.9 -1,-17.7 -1.3,-26.6c-0.3,-7 -0.6,-14.1 -1,-21.1c-0.6,-10 -1.1,-19.9 -1.4,-29.9c-0.4,-9.6 -0.7,-19.2 -0.9,-28.8c-0.2,-11.7 -0.6,-23.3 -1,-35c-0.4,-14.5 -0.4,-28.9 -0.6,-43.4c0,-1.4 0.1,-2.7 0.1,-4.1c-0.1,-6.7 -0.2,-13.4 -0.5,-20.1c-0.3,-6.5 -0.4,-13.1 -0.7,-19.7c-0.4,-8.6 -0.9,-17.2 -1.4,-25.9c-0.1,-1.6 -0.1,-3.2 -0.2,-4.8c-0.3,-5.4 -0.7,-10.8 -0.7,-16.3c0,-6.9 -0.3,-13.7 -0.7,-20.6c-0.6,-9.2 -1.9,-18.3 -2.3,-27.5c-0.1,-1.5 -0.3,-3 -0.4,-4.5c0,-0.4 -0.1,-0.9 -0.6,-0.8c-0.5,0.1 -0.5,0.6 -0.4,1c0,0.2 0.1,0.5 0.1,0.7c0.3,4.5 1,8.9 1.1,13.4c0.1,6.4 0.3,12.8 0.5,19.2c0,0.8 0.1,1.6 0.2,2.4c0.5,3.7 0.6,7.5 0.5,11.2c-0.2,9 -0.2,17.9 -0.2,26.9c0,14 -0.1,28 0.4,42c0.4,12 0.5,24 0.9,36c0.4,9.3 0.3,18.7 0.5,28c0.3,10.2 0.1,20.5 0.4,30.7c0.3,10.2 0.2,20.5 0.6,30.7c0.2,4.6 0.2,9.3 0.3,13.9c0,4.4 0.1,8.8 0.1,13.1c0,9.4 0.2,18.7 -0.2,28c-0.4,9.8 -0.1,19.7 -0.4,29.5c-0.1,7.6 0,14.9 0,22.1zm72.4,-392c0.6,0.1 0.8,0.4 0.9,0.8c0.3,1.5 0.7,3 1,4.4c0.4,2.4 0.7,4.7 0.7,7.1c0,0.5 0.1,1 0.8,1c0.5,0 0.6,-0.5 0.6,-0.9c0,-1.4 0,-2.7 -0.1,-4.1c-0.2,-2.5 -0.5,-4.9 -0.7,-7.4c-0.1,-0.9 0,-2 1,-2.2c1.1,-0.2 1.4,1 1.6,1.7c0.7,3 1.4,5.9 1.4,9c0,0.8 0,1.6 0.1,2.4c0,0.5 0.2,1 0.8,1c0.6,0 0.8,-0.5 0.8,-1c0,-1 -0.1,-1.9 -0.2,-2.9c-0.2,-2.3 -0.8,-4.6 -0.7,-6.9c0,-0.7 0.2,-1.3 0.9,-1.5c0.8,-0.2 1.4,0.2 1.7,1c0.2,0.6 0.4,1.2 0.5,1.8c0.5,2.6 1,5.2 1,7.8c0,1 0.6,1.4 1.6,1.3c0.9,-0.1 0.8,-0.9 0.7,-1.5c-0.3,-2.5 -0.6,-4.9 -0.9,-7.4c-0.1,-1 -0.3,-1.9 -0.2,-2.9c0.1,-0.5 0.4,-0.9 0.9,-1c0.5,-0.1 0.9,0.2 1.2,0.6c0.2,0.3 0.3,0.6 0.4,0.9c1,2.6 1.8,5.3 1.7,8.2c0,0.7 0.1,1.4 0.2,2.1c0.1,0.5 0.4,0.9 1,0.8c0.5,-0.1 0.8,-0.5 0.8,-1.1c0,-0.3 0,-0.6 -0.1,-1c-0.1,-2.9 -0.3,-5.7 -0.4,-8.6c0,-0.7 -0.2,-1.4 0.2,-2.1c0.2,-0.5 0.7,-1 1.3,-0.9c0.6,0 0.8,0.5 0.9,1c0.6,2.4 1.6,4.7 1.2,7.3c-0.2,1.2 0,2.4 0,3.6c0,0.4 0.2,0.8 0.6,0.9c0.5,0.1 0.9,-0.3 1,-0.8c0.1,-0.6 0,-1.1 0.1,-1.7c0.1,-2.5 -0.4,-4.9 -0.4,-7.4c0,-1 0,-1.9 0.6,-2.8c0.3,-0.4 0.7,-0.7 1.2,-0.6c0.4,0.1 0.6,0.5 0.7,0.9c0.1,0.3 0.1,0.6 0.1,0.9c0.4,2.9 0.7,5.7 0.8,8.6c0,0.5 0.1,1.1 0.3,1.6c0.1,0.3 0.4,0.5 0.8,0.4c0.3,0 0.6,-0.3 0.6,-0.6c0,-0.5 -0.1,-1 -0.1,-1.4c-0.1,-2.9 -0.2,-5.8 0.3,-8.6c0.1,-0.7 0.3,-1.5 1.1,-1.7c0.8,-0.1 1,0.6 1.4,1.1c0.1,0.1 0.1,0.5 0.4,0.3c0,-0.6 0,-1.1 0,-1.7c0,-0.8 0.1,-1.7 1.1,-1.8c1,-0.1 1.3,0.8 1.6,1.5c0.4,1.4 0.7,2.8 0.8,4.2c0,1.9 0.1,3.8 0.1,5.8c0,0.5 -0.2,1.3 0.7,1.3c0.9,0 0.8,-0.8 0.7,-1.4c0,-0.3 -0.1,-0.6 -0.1,-1c-0.1,-2.7 -0.8,-5.4 -0.6,-8.1c0.1,-1 -0.3,-2.4 1.1,-2.5c1.4,-0.1 1.4,1.3 1.5,2.3c0.3,2.5 0.5,4.9 0.8,7.4c0.1,0.8 -0.3,2.3 0.6,2.3c1.4,-0.1 0.7,-1.7 0.7,-2.6c0,-2.1 -0.2,-4.1 -0.2,-6.2c0,-0.6 0.1,-1.4 0.9,-1.5c0.9,-0.1 1.3,0.6 1.5,1.3c0.1,0.4 0.1,0.8 0.1,1.2c0.1,1.9 0.2,3.8 0.4,5.7c0.1,0.7 -0.3,1.8 1.1,1.6c1.3,-0.1 1.1,-1.1 1,-2c-0.2,-1.6 -0.5,-3.2 -0.6,-4.7c-0.1,-0.9 0,-1.9 0,-2.9c0,-0.3 0.3,-0.6 0.6,-0.7c0.3,-0.1 0.6,0.1 0.8,0.3c0.4,0.4 0.5,1 0.6,1.5c0.3,1.7 0.5,3.5 0.5,5.2c0,0.6 0,1.3 0.1,1.9c0.1,0.5 0.5,0.8 1.1,0.7c0.6,-0.1 0.8,-0.4 0.8,-1c-0.1,-0.4 -0.2,-0.8 -0.2,-1.2c-0.1,-1.9 -0.4,-3.8 0,-5.7c0.1,-0.5 0.3,-1.2 1,-1.1c0.6,0.1 0.6,0.6 0.8,1.1c0.5,1.6 0.2,3.3 0.3,5c0.1,0.8 -0.4,2.4 0.7,2.3c0.9,-0.1 0.4,-1.6 0.3,-2.5c-0.2,-1.6 -0.4,-3.2 -0.3,-4.8c0,-0.6 0.2,-1.1 0.9,-1.2c0.6,-0.1 0.8,0.4 1.1,0.8c0.7,1.4 1,2.8 1.2,4.4c0.1,1 0.1,2 1,3c0.6,-1.2 0.5,-2.3 0.4,-3.4c-0.1,-1 -0.2,-2.1 -0.2,-3.1c0,-0.7 0.3,-1.3 1,-1.4c0.9,-0.2 1.1,0.5 1.3,1.1c0.5,1.5 0.7,3.1 0.7,4.7c0,0.5 -0.2,1.2 0.6,1.3c0.6,-0.3 0.3,-0.9 0.3,-1.3c0,-1.4 0,-2.9 0,-4.3c0,-0.5 0.2,-0.9 0.8,-1.1c0.5,-0.2 0.9,0.1 1.3,0.5c0.4,0.5 0.7,1.1 0.8,1.7c0.1,1 0.1,1.9 0.1,2.9c0,0.7 0.1,1.4 0.9,1.4c1,0 1.1,-0.7 1,-1.5c-0.1,-1.2 -0.3,-2.4 0,-3.6c0.2,-0.7 0.2,-1.6 1.2,-1.5c0.9,0 1.1,0.8 1.3,1.5c0.3,1.1 0.3,2.2 0.4,3.3c0,0.6 0.1,1.2 0.8,1.2c0.8,0 0.7,-0.7 0.6,-1.3c-0.3,-1.3 -0.3,-2.5 -0.2,-3.8c0,-0.6 0.2,-1.2 0.9,-1.3c0.7,-0.1 1.2,0.3 1.5,0.9c0.2,0.5 0.3,1.1 0.4,1.6c0.3,1 0,2 0.7,3c0.2,-0.9 0.2,-1.8 0.2,-2.8c0,-0.7 0.1,-1.6 1.1,-1.6c0.9,0 1.1,0.8 1.2,1.6c0.1,0.5 0,1 0.1,1.4c0.1,0.5 0,1 0.8,1c0.5,-0.7 0.1,-1.5 0,-2.3c-0.1,-0.4 0,-0.8 0.4,-1c0.5,-0.3 0.9,0.1 1.2,0.4c0.5,0.5 0.7,1.3 0.9,1.9c0.1,0.4 0.4,0.7 0.9,0.6c0.5,-0.1 0.6,-0.5 0.6,-0.9c0,-0.6 0,-1.1 0.1,-1.7c0.1,-0.7 0.4,-1.3 1.2,-1.3c0.7,0 1,0.5 1.1,1.1c0.1,0.6 0.2,1.3 0.3,1.9c0.1,0.4 0.3,0.8 0.8,0.7c0.6,0 0.8,-0.4 0.8,-1c0,-0.9 -0.5,-2.1 0.9,-2.3c1.1,-0.1 1.2,1.1 1.5,1.9c0.1,0.4 0.4,0.7 0.9,0.7c0.5,0 0.7,-0.4 0.7,-0.8c0,-0.2 0,-0.3 0,-0.5c0,-0.5 0.1,-1 0.6,-1.2c0.5,-0.2 0.9,0.2 1.2,0.6c0.7,1.1 1.4,1.6 2.1,0c0.1,-0.3 0.5,-0.2 0.9,-0.1c2.8,0.4 5.5,0 8.7,-1c-1.7,-0.2 -2.8,-0.4 -4,-0.4c-4.6,-0.1 -9.1,-0.1 -13.6,-0.6c-4.1,-0.5 -8.3,-0.9 -12.4,-1.3c-4.2,-0.4 -8.4,-1.2 -12.6,-1.6c-5.9,-0.5 -11.7,-1.5 -17.6,-1.8c-5.7,-0.3 -11.5,-0.5 -17.2,-0.5c-6.7,0.1 -13.4,0.7 -20.1,1.3c-5.3,0.4 -10.6,1 -15.9,2c-5.2,0.9 -10.3,2.4 -15.4,3.6c-3.8,0.9 -7.5,2.1 -11.4,2.9c-4.9,1 -5.4,5.5 -7.4,8.7c-0.2,0.3 0.1,0.6 0.4,0.7c0.3,0.1 0.6,0 0.8,-0.3c0.1,-0.1 0.1,-0.3 0.2,-0.4c0.3,-0.7 0.7,-1.4 1.6,-1.1c0.8,0.3 1,1 1,1.7c0,1.4 -0.1,2.9 -0.1,4.3c0,0.6 -0.5,1.3 0.4,2c0,-1.1 0,-1.9 0,-2.8c0,-1.8 -0.1,-3.7 0.4,-5.5c0.6,-1.9 1.3,-2.9 2,-2.5c1.3,0.7 0.9,1.9 0.8,3c-0.3,2.2 -0.2,4.3 -0.2,6.5c0,0.4 0,0.9 0.5,1c0.7,0.1 0.8,-0.5 0.7,-1c0,-2.1 -0.1,-4.2 -0.2,-6.2c-0.1,-1.1 0.1,-2.2 0.6,-3.3c0.2,-0.4 0.5,-0.7 0.9,-0.7c0.6,0 0.9,0.4 1,0.9c0.1,0.4 0,0.8 0.1,1.2c0.3,2.5 0.4,4.9 0.1,7.4c-0.1,0.6 -0.2,1.3 0.7,1.5c1,0.1 1.5,-0.3 1.6,-1.3c0.1,-1.5 0,-3 -0.2,-4.5c-0.2,-1.5 -0.3,-3 -0.2,-4.5c0,-0.6 0.3,-1.3 1.1,-1.4c0.7,0 0.8,0.7 0.9,1.2c0.7,2.5 1.1,5 1,7.6c0,0.6 0,1.1 0.1,1.7c0.1,0.5 0.5,0.8 1.1,0.8c0.5,0 0.9,-0.3 1,-0.8c0,-0.6 0,-1.1 0,-1.7c0,-2.5 -0.6,-4.9 0.1,-7.4c0.2,-0.8 0.3,-2 1.4,-1.9c1.1,0.1 1,1.3 1.1,2.1c0.1,2.3 0.1,4.6 0.1,7c0,0.6 -0.1,1.3 0.2,1.9c0.2,0.3 0.5,0.4 0.8,0.3c0.2,-0.1 0.4,-0.3 0.4,-0.6c0,-0.2 -0.1,-0.5 -0.1,-0.7c-0.8,-3.6 -0.2,-7.3 -0.7,-11c0,-0.3 0,-0.6 0.2,-0.9c0.3,-0.9 1.3,-1.1 1.9,-0.3c0.3,0.3 0.5,0.8 0.6,1.3c0.4,1.4 0.7,2.8 0.6,4.3c-0.1,2.1 -0.2,4.2 -0.3,6.2c0,0.7 0,1.4 0.9,1.4c0.9,0 0.7,-0.7 0.7,-1.2c-0.3,-2.8 0,-5.6 0,-8.4c0,-1.2 0.1,-2.4 0.7,-3.5c0.2,-0.4 0.4,-0.7 0.8,-0.8c0.6,0 0.8,0.5 0.9,0.9c0.6,2 0.6,4.1 0.6,6.2c-0.1,1.8 0,3.5 0,5.3c0,0.7 0.5,1.2 1.3,1.1c0.7,-0.1 0.8,-0.7 0.7,-1.3c-0.2,-1.3 -0.4,-2.5 -0.5,-3.8c-0.1,-2.5 -0.8,-4.9 -0.3,-7.4c0.2,-0.9 0.2,-2.3 1.3,-2.3c1.2,0 1.2,1.4 1.2,2.3c0.2,3.4 1,6.6 1,10c0,0.4 0,0.8 0.2,1.2c0.2,0.5 0.5,0.8 1.1,0.7c0.4,-0.1 0.7,-0.4 0.8,-0.8c0,-0.4 -0.1,-0.8 -0.1,-1.2c-0.3,-3 -0.2,-6.1 -0.7,-9.1c-0.2,-1.2 -0.1,-2.4 0.7,-3.5c0.3,-0.4 0.6,-0.8 1.2,-0.6c0.4,0.1 0.6,0.5 0.7,0.9c0.4,2.1 1,4.2 1,6.4c0,1.9 0,3.8 0.4,5.7c0.1,0.4 0,1 0.7,1.1c0.4,-0.3 0.3,-0.7 0.3,-1.1c-0.4,-4.1 -0.8,-8.1 -1.2,-12.2c-0.1,-0.6 -0.1,-1.1 -0.1,-1.7c0.1,-0.7 0.5,-1.2 1.2,-1.3c0.7,-0.1 1.2,0.3 1.5,0.9c0.4,0.8 0.4,1.7 0.5,2.6c0.2,3.7 1.1,7.3 1.1,11c0,1.3 0.6,1.7 1.8,1.5c1.2,-0.1 1.1,-0.9 1,-1.7c-0.3,-2.5 -0.7,-4.9 -0.8,-7.4c-0.8,-1.3 -1,-3 0.2,-4.5zm-354.2,430.1c0,3.8 0,7.7 0,11.5c0,1.8 0.2,1.9 1.9,2c1.3,0 2.6,0 3.8,0c1.1,0 1.7,-0.4 1.6,-1.6c0,-0.6 0,-1.3 0,-1.9c0,-4.1 0,-8.2 0,-12.2c0,-0.8 -0.2,-1.9 0.7,-2.1c1.8,-0.4 1.8,-1.8 2,-3.1c0.5,-2.8 1.8,-5.1 4.6,-6.3c2.3,-1.1 4.8,-1.3 7.3,-0.6c3.1,0.8 5,2.7 5.9,5.7c0.4,1.2 0.4,2.5 0.4,3.8c0,0.8 0.2,1.4 1,1.6c1.1,0.3 1.2,1.2 1.2,2.1c0,1.6 0,3.2 0,4.8c0,2.6 0,5.3 0,7.9c0,1.7 0.3,1.9 2,2c0.9,0 1.8,0 2.6,0c2.3,0 2.4,-0.1 2.4,-2.5c0,-7 0,-14.1 0,-21.1c0,-1.7 -0.5,-2.9 -1.7,-4c-4.2,-4.1 -8.2,-8.3 -12.4,-12.4c-1.1,-1.1 -2.3,-2.2 -3.4,-3.4c-0.8,-0.9 -1.6,-0.9 -2.4,0c-0.3,0.4 -0.7,0.7 -1,1c-5.1,4.9 -10.3,9.9 -15.5,14.7c-1,0.9 -1.4,1.8 -1.4,3.1c0.4,3.7 0.4,7.3 0.4,11zm288.8,-403.9c-0.2,-3.1 -0.7,-6 -2,-8.7c-0.6,-1.3 -1.4,-2.3 -2.6,-3c-2,-1.2 -4.2,-2 -6.5,-2.4c-1.5,-0.2 -2.9,-0.1 -4.1,0.8c-0.6,0.4 -1.2,0.7 -2,0.8c-1.5,0.1 -2.7,0.9 -3.6,2.1c-0.7,0.8 -1.4,1.7 -2.2,2.5c-1.8,1.8 -2.9,4 -3.5,6.5c-0.8,3.3 -0.5,7.8 3.4,10.5c4.3,3 9.2,4 14.3,3.8c1.3,0 2.3,-0.6 3.2,-1.4c3.4,-3.2 5.2,-7.1 5.6,-11.5zm-232.7,366.8c0,0 0,0 0,0c0,9.9 0,19.8 0,29.8c0,0.7 0,1.4 0.1,2.2c0,0.3 0.1,0.7 0.5,0.7c0.5,0.1 0.7,-0.3 0.8,-0.7c0.5,-1.4 0.4,-2.8 0.4,-4.3c-0.1,-19.2 -0.1,-38.4 -0.2,-57.6c0,-0.9 -0.1,-1.8 -0.1,-2.6c0,-1.8 -0.9,-2.8 -2.7,-3.4c-8.4,-2.9 -16.7,-2.3 -24.9,0.9c-2,0.8 -2.9,1.9 -2.9,4.3c0.2,9.9 0.3,19.8 0.4,29.7c0,2.3 0,4.6 0,7c0,0.6 0,1.1 0.1,1.7c0.1,0.6 0.2,1.2 0.9,1.2c0.7,0 0.9,-0.6 0.9,-1.1c0.1,-1 0.1,-2.1 0.1,-3.1c0,-11.4 -0.1,-22.7 -0.1,-34.1c0,-3 0.2,-3.3 3.1,-4.2c4.4,-1.5 8.8,-2 13.5,-1.9c2.6,0.1 5,0.6 7.4,1.6c2.1,0.8 2.7,2 2.7,4.2c-0.1,9.7 0,19.7 0,29.7zm-28,-37.7c9.5,-3.1 18.8,-3.8 28.2,-0.3c-4.2,-4.7 -8.4,-9.3 -12.6,-13.8c-1,-1.1 -1.2,-1 -2.3,0.1c-3.7,3.8 -7.5,7.7 -11.2,11.5c-0.7,0.9 -1.4,1.7 -2.1,2.5zm241.7,-275.9c0.3,-9.5 0.2,-18.9 -1.5,-28.4c-1.2,2.1 -2.3,4 -3,6c-2.1,5.5 -2.3,10.9 1.1,16c1.4,2 2.4,4.2 3.4,6.4zm-288.9,331.4c0,-1.2 0,-2.4 0,-3.6c-0.1,-2 -1.1,-3.2 -2.9,-3.5c-1.5,-0.2 -2.9,0.7 -3.6,2.5c-0.1,0.4 -0.3,0.8 -0.3,1.2c0,2.5 0,5 0,7.4c0,1 0.5,1.5 1.5,1.5c1.3,0 2.6,0 3.8,0c1.1,0 1.6,-0.6 1.5,-1.7c0,-1.2 0.1,-2.5 0,-3.8zm-18.4,-0.1c-0.1,0 -0.1,0 0,0c0,1.3 0,2.5 0,3.8c0,1.1 0.5,1.8 1.7,1.8c1.2,0 2.4,0 3.6,0c1.2,0 1.7,-0.6 1.7,-1.8c0,-1.8 0,-3.7 0,-5.5c0,-1 0,-1.9 -0.3,-2.8c-0.6,-1.6 -2.3,-2.8 -3.9,-2.6c-1.4,0.2 -2.6,1.5 -2.7,3.2c-0.2,1.4 -0.1,2.7 -0.1,3.9zm143.4,0.2c0,0 0,0 0,0c0,-1.2 0.1,-2.4 0,-3.6c-0.1,-2.1 -1.5,-3.5 -3.4,-3.6c-1.7,-0.1 -3.1,1.3 -3.3,3.4c-0.1,2.5 0,4.9 -0.1,7.4c0,1.1 0.5,1.8 1.7,1.8c1.1,0 2.2,0 3.3,0c1.1,0 1.6,-0.5 1.7,-1.6c0.1,-1.2 0.1,-2.5 0.1,-3.8zm-12,0c0,0 0,0 0,0c0,-1.3 0,-2.5 0,-3.8c0,-0.9 -0.2,-1.7 -1,-2.4c-1,-0.8 -2,-1.3 -3.3,-0.9c-1.4,0.5 -2.1,1.5 -2.2,2.9c-0.2,1.7 -0.2,3.5 -0.1,5.2c0.1,4.7 -0.9,4.5 4.8,4.4c1.5,0 1.7,-0.3 1.8,-1.9c0.1,-1.1 0,-2.3 0,-3.5zm-8.7,-40.5c-0.1,0 -0.1,0 0,0c-0.1,-1 0,-2.1 -0.1,-3.1c-0.2,-1.2 -1.1,-2 -2.2,-2.1c-1.2,-0.1 -2,0.3 -2.5,1.4c-0.2,0.4 -0.5,0.9 -0.5,1.3c-0.1,1.8 -0.1,3.6 -0.1,5.5c0,0.5 0.2,1 0.8,1.1c1.3,0.3 2.7,0.5 4,-0.1c1.2,-0.5 0.6,-1.8 0.7,-2.8c-0.1,-0.4 -0.1,-0.8 -0.1,-1.2zm-102.3,1.5c0,0 0,0 0,0c0,-1 0,-1.9 -0.1,-2.9c-0.2,-1.5 -1.1,-2.3 -2.5,-2.4c-1.4,-0.1 -2.3,0.7 -2.5,2.3c-0.2,1.6 -0.1,3.2 -0.1,4.8c0,2.1 0.3,2.2 2.4,2.3c2.5,0 2.7,-0.1 2.7,-2.7c0.1,-0.4 0.1,-0.9 0.1,-1.4zm109.5,-1.6c0,0 0,0 0,0c0,-0.7 0,-1.4 0,-2.2c-0.1,-1.9 -0.9,-2.9 -2.4,-2.9c-1.5,0 -2.5,0.9 -2.6,2.8c-0.1,1.6 -0.1,3.2 0,4.8c0.1,1.5 0.3,1.7 1.9,1.8c0.5,0 1,0 1.4,0c1.2,0 1.8,-0.5 1.8,-1.7c-0.1,-0.9 -0.1,-1.7 -0.1,-2.6zm-124.2,1.5c0,0 -0.1,0 0,0c-0.1,-1 0,-2.1 -0.1,-3.1c-0.2,-1.4 -1.1,-2.1 -2.5,-2.1c-1.3,0 -2,0.7 -2.4,2.2c-0.4,1.5 -0.2,3 -0.2,4.5c0,2.5 0.2,2.7 2.7,2.6c2.1,0 2.3,-0.3 2.4,-2.3c0.1,-0.5 0.1,-1.2 0.1,-1.8zm7.5,0.3c0,0 0,0 0,0c0,-1 0,-1.9 -0.1,-2.9c-0.2,-1.7 -1.1,-2.6 -2.6,-2.6c-1.5,-0.1 -2.3,0.8 -2.5,2.6c-0.1,1.4 -0.1,2.9 -0.1,4.3c0,2.3 0.2,2.5 2.5,2.5c2.5,0 2.7,-0.1 2.7,-2.7c0.1,-0.4 0.1,-0.8 0.1,-1.2zm131.2,-1.7c0,0 -0.1,0 -0.1,0c0,-1.1 0.1,-2.3 0,-3.3c-0.3,-1.7 -2.3,-2.5 -3.7,-1.5c-0.7,0.5 -1,1.2 -1.2,2c-0.3,1.9 -0.2,3.8 -0.1,5.7c0,0.6 0.3,1 1,1.2c2.7,0.9 4.1,-0.1 4.2,-2.9c-0.1,-0.4 -0.1,-0.8 -0.1,-1.2zm7.2,-0.1c0,0 0,0 0,0c0,-0.7 0,-1.4 0,-2.2c0,-0.2 0,-0.3 0,-0.5c-0.2,-1.6 -0.8,-2.3 -2.1,-2.4c-1.5,-0.2 -2.3,0.4 -2.7,2.1c-0.5,2 -0.3,4.1 -0.2,6.2c0,0.6 0.4,1 1.1,1.1c0.6,0.1 1.3,0.1 1.9,0.1c1.7,-0.1 2,-0.3 2.1,-1.9c-0.1,-0.9 -0.1,-1.7 -0.1,-2.5zm-129,1.7c0,0 -0.1,0 0,0c-0.1,0.3 -0.1,0.6 -0.1,1c0,3.1 0.4,3.4 3.5,3.1c1,-0.1 1.7,-0.5 1.7,-1.6c0,-1.8 0.1,-3.5 0,-5.3c-0.1,-1.7 -1.1,-2.6 -2.6,-2.5c-1.3,0 -2.2,0.9 -2.5,2.5c-0.1,0.8 0,1.8 0,2.8zm114.5,-1.6c0,0 0,0 0,0c0,-0.8 0,-1.6 0,-2.4c-0.1,-1.8 -0.9,-2.7 -2.4,-2.8c-1.5,-0.1 -2.6,0.9 -2.7,2.7c-0.1,1.7 0,3.5 0,5.3c0,0.6 0.2,1.1 0.8,1.3c2.4,1 4.3,-0.1 4.3,-2.7c0.1,-0.5 0,-0.9 0,-1.4zm-138.6,1.4c-0.1,0 -0.1,0 0,0c0,-1 0,-1.9 -0.1,-2.9c-0.2,-1.5 -1.1,-2.3 -2.5,-2.3c-1.3,0 -2.1,0.7 -2.2,2.3c-0.1,1.7 -0.1,3.3 0,5c0.1,1.8 0.3,2 2.1,2.1c2.3,0.1 2.6,-0.2 2.7,-2.5c0,-0.6 0,-1.1 0,-1.7zm83.3,22.1c0,-1.3 0,-2.5 0,-3.8c0,-0.8 -0.3,-1.5 -1.1,-1.6c-1,-0.1 -1.4,0.7 -1.4,1.6c0,2.5 0,5.1 0,7.6c0,0.9 0.5,1.3 1.4,1.2c0.8,0 1.2,-0.5 1.2,-1.2c-0.1,-1.2 -0.1,-2.5 -0.1,-3.8zm0,-24.1c0,0 0,0 0,0c-0.1,-1.4 0,-2.7 -0.1,-4.1c0,-0.7 -0.4,-1.3 -1.2,-1.3c-0.7,0 -1.2,0.5 -1.3,1.2c-0.1,0.5 -0.1,1.1 -0.1,1.7c0,1.6 0,3.2 0,4.8c0,0.5 0,1 0.1,1.4c0.1,1 0.9,1.3 1.7,1.3c0.9,0 0.9,-0.8 0.9,-1.4c0,-1.2 0,-2.4 0,-3.6zm-11.3,1.1c0,0 0,0 0,0c0,1.2 0,2.4 0,3.6c0,0.5 0,1 0.6,1.1c0.5,0.1 1,-0.1 1.3,-0.6c0.2,-0.3 0.4,-0.7 0.4,-1.1c0,-2.2 0,-4.5 0,-6.7c0,-0.7 -0.2,-1.4 -1,-1.4c-0.9,0 -1.2,0.7 -1.3,1.4c0,1.3 0,2.5 0,3.7zm0,24.2c0,1.2 0,2.4 0,3.6c0,0.4 0.1,0.8 0.5,0.9c0.4,0.1 0.8,-0.1 1.1,-0.3c0.5,-0.4 0.7,-0.9 0.7,-1.5c0,-2.1 0,-4.3 0,-6.4c0,-0.7 -0.2,-1.5 -1.2,-1.4c-0.9,0.1 -1.1,0.8 -1.1,1.6c0,1.1 0,2.3 0,3.5zm19.2,0.6c-0.1,0 -0.1,0 0,0c0,-1.3 0,-2.5 -0.1,-3.8c0,-0.6 -0.3,-1.1 -1,-1.1c-0.6,0 -1.1,0.4 -1.2,1c-0.3,2.4 -0.2,4.9 0,7.4c0.1,0.8 0.8,1 1.4,0.9c0.8,-0.1 0.8,-0.7 0.8,-1.3c0.1,-1 0.1,-2 0.1,-3.1zm-0.1,-24.2c0,0 0,0 0,0c0,-1.1 0,-2.2 0,-3.4c0,-0.7 -0.2,-1.3 -1,-1.4c-0.8,0 -1.2,0.5 -1.2,1.2c-0.1,2.2 -0.1,4.5 0,6.7c0,0.7 0.4,1.2 1.2,1.2c0.8,0 1.1,-0.6 1.1,-1.3c0,-0.9 -0.1,-2 -0.1,-3zm135.7,51c0,-1.3 -1.1,-2.4 -2.4,-2.5c-1.4,-0.1 -2.6,1.2 -2.5,2.6c0.1,1.3 1.2,2.4 2.5,2.4c1.3,-0.1 2.4,-1.2 2.4,-2.5zm38.4,-63.9c0,-1.3 -1.1,-2.5 -2.4,-2.5c-1.3,0 -2.5,1.1 -2.5,2.4c-0.1,1.4 1.1,2.6 2.5,2.6c1.4,0 2.4,-1.1 2.4,-2.5zm83.1,30.4c0,-1.4 -1.3,-2.6 -2.6,-2.5c-1.2,0.1 -2.4,1.3 -2.3,2.6c0.1,1.3 1.2,2.4 2.5,2.3c1.4,-0.1 2.4,-1.1 2.4,-2.4zm-11.8,8.7c0.1,1.4 1.1,2.3 2.5,2.3c1.3,0 2.4,-1.1 2.4,-2.4c0,-1.4 -1.3,-2.6 -2.6,-2.5c-1.3,0.1 -2.3,1.3 -2.3,2.6zm96.7,19.5c-1.2,-0.1 -2.4,1 -2.6,2.3c-0.1,1.3 0.9,2.5 2.2,2.6c1.4,0.1 2.7,-1 2.7,-2.4c0.1,-1.3 -1,-2.5 -2.3,-2.5zm-5.3,2.2c0.1,-1.3 -1,-2.5 -2.2,-2.7c-1.3,-0.1 -2.7,1.1 -2.7,2.4c-0.1,1.3 1,2.4 2.3,2.5c1.4,0.1 2.5,-0.9 2.6,-2.2zm-12.9,-62.1c0,-1.3 -1.2,-2.4 -2.4,-2.5c-1.3,0 -2.6,1.3 -2.5,2.6c0.1,1.3 1.2,2.3 2.5,2.3c1.3,0 2.4,-1.2 2.4,-2.4zm-199.1,47.8c-1.3,0 -2.5,1.1 -2.5,2.4c0,1.3 1.1,2.5 2.4,2.6c1.3,0 2.5,-1.1 2.5,-2.4c0,-1.5 -1.1,-2.6 -2.4,-2.6zm0.2,12.2c1.3,0 2.5,-1.2 2.4,-2.5c0,-1.3 -1.2,-2.4 -2.5,-2.4c-1.3,0 -2.4,1.2 -2.4,2.5c0.1,1.4 1.1,2.4 2.5,2.4zm188.6,-62.2c-1.3,0 -2.4,1.2 -2.4,2.5c0.1,1.3 1.2,2.4 2.6,2.3c1.3,0 2.4,-1.2 2.4,-2.5c-0.1,-1.3 -1.2,-2.3 -2.6,-2.3zm-56.3,42.5c0,-1.5 -0.9,-2.5 -2.2,-2.5c-1.3,0 -2.4,1.1 -2.4,2.4c0,1.4 1,2.4 2.3,2.5c1.4,0.1 2.3,-0.9 2.3,-2.4zm67.9,16.4c1.5,0 2.5,-0.9 2.5,-2.3c0.1,-1.4 -1,-2.4 -2.4,-2.4c-1.3,0 -2.5,1 -2.6,2.3c0,1.3 1.1,2.4 2.5,2.4zm-206.1,-6.9c0,-1.4 -1,-2.4 -2.3,-2.4c-1.3,0 -2.4,1.1 -2.4,2.4c0,1.3 1.1,2.5 2.4,2.5c1.3,-0.1 2.3,-1.1 2.3,-2.5zm50.4,-40.1c0,1.4 0.9,2.3 2.2,2.3c1.5,0 2.6,-1.1 2.5,-2.6c-0.1,-1.3 -1.2,-2.4 -2.5,-2.4c-1.3,0.1 -2.2,1.2 -2.2,2.7zm156.5,50c-1.4,0 -2.4,0.9 -2.4,2.4c0,1.3 1.1,2.5 2.3,2.5c1.3,0 2.3,-1.1 2.4,-2.5c0.1,-1.4 -0.9,-2.4 -2.3,-2.4zm-193.1,-4.3c-1.4,0 -2.3,1 -2.3,2.5c0.1,1.3 1,2.2 2.3,2.2c1.5,0 2.4,-0.9 2.4,-2.4c0,-1.5 -0.9,-2.4 -2.4,-2.3zm-250.1,2.9c0,-1.3 -1,-2.3 -2.2,-2.3c-1.2,0 -2.3,1.1 -2.3,2.3c0,1.3 1,2.2 2.3,2.2c1.3,0 2.2,-0.9 2.2,-2.2zm-41.6,-11.2c1.4,0 2.3,-0.9 2.2,-2.2c0,-1.2 -1.1,-2.3 -2.3,-2.3c-1.2,0 -2.2,1.1 -2.2,2.4c0,1.2 0.9,2.1 2.3,2.1zm2.7,5.3c0.1,-1.3 -0.8,-2.2 -2.2,-2.2c-1.3,0 -2.3,0.9 -2.3,2.2c0,1.2 1,2.3 2.2,2.3c1.2,0 2.3,-1.1 2.3,-2.3zm29.1,8.1c1.3,0 2.2,-0.9 2.2,-2.3c0,-1.2 -0.9,-2.2 -2,-2.2c-1.2,-0.1 -2.4,1 -2.4,2.2c-0.1,1.2 1,2.3 2.2,2.3zm-30.5,-2.7c-1.2,-0.1 -2.1,0.7 -2.2,2c-0.1,1.4 0.7,2.4 2,2.5c1.1,0.1 2.1,-0.9 2.2,-2c0.1,-1.4 -0.7,-2.4 -2,-2.5zm365.6,-345.6c0.1,-1.3 0,-2.3 -1,-2.7c-1.5,-0.5 -2.7,-1.4 -3.9,-2.2c-0.3,-0.2 -0.7,-0.5 -1,-0.1c-0.4,0.4 -0.4,1 0.1,1.3c1.8,1.2 3.5,2.8 5.8,3.7zm-0.3,-5.3c-0.9,-2 -2.6,-2.2 -3.8,-3c-0.1,0 -0.3,0.1 -0.4,0.1c-0.2,0.2 -0.2,0.5 0,0.6c1.2,0.9 2.4,1.8 4.2,2.3zm-111.4,-166.6c0.5,0.1 1.6,-1.2 1.7,-1.8c0.1,-0.4 -0.1,-0.6 -0.5,-0.7c-0.6,-0.2 -2.1,0.7 -2.1,1.2c0.1,0.5 0.3,1 0.9,1.3z"/>
     <path fill="#ffffff" id="svg_4" d="m370.9,708c-1.5,-0.6 -3,-0.4 -4.5,-0.4c-5.8,0.1 -11.7,-0.1 -17.5,-0.5c-9.2,-0.7 -18.4,-1.9 -27.6,-3.5c-5.4,-0.9 -10.7,-2 -16,-3.2c-0.9,-0.2 -1.9,-0.2 -2.5,-0.9c0.3,-0.7 0.9,-0.6 1.3,-0.6c7.1,-0.1 14.2,-0.5 21.3,0.3c0.2,0 0.5,0.1 0.7,0c8.2,-0.5 16.4,0.3 24.6,0.2c8.2,-0.1 16.3,0 24.5,-0.2c3.8,-0.1 7.6,-0.5 11.5,-0.6c3.7,-0.1 7.3,-0.2 11,-0.3c6.3,-0.2 12.6,-0.3 18.9,-0.6c3.3,-0.2 6.6,-0.8 10,-1c5.4,-0.4 10.7,-0.3 16.1,-0.2c4.3,0 8.6,0 13.1,-0.2c-0.7,0.9 -1.6,1 -2.4,1.2c-11.9,3.2 -23.9,5.8 -36.1,7.5c-8.7,1.2 -17.4,2.1 -26.2,2.6c-4.8,0.3 -9.6,0.1 -14.4,0.1c-1.1,0 -2.2,-0.1 -3.3,0.4c-0.9,-0.1 -1.7,-0.1 -2.5,-0.1z"/>
     <path fill="#ffffff" id="svg_5" d="m250.3,404c-3.3,3.7 -7.1,6.8 -10,10.8c-1.7,2.3 -4.4,3.6 -7.3,4.3c-0.4,0.1 -1,0 -1.4,-0.1c-4,-1.4 -7.6,-3.3 -9.9,-7.2c-0.2,-0.3 -0.4,-0.7 -0.7,-1c-0.4,-0.5 -0.8,-0.4 -1.2,0c-3.6,3.9 -8,4.2 -12.7,2.8c-2.1,-0.6 -1.9,-0.5 -3.5,1.1c-1.9,2 -4.4,3.4 -7.2,3.5c-8,0.4 -14.9,-2.3 -20.6,-7.9c-0.9,-0.8 -1.3,-2 -1.6,-3.2c-0.2,-0.6 -0.4,-1.3 -1.1,-1.4c-0.8,-0.2 -1.1,0.6 -1.3,1.1c-1.2,2.5 -3.4,4.2 -5.1,6.3c-1.2,1.4 -3,1.8 -4.7,2.1c-2.1,0.3 -4,1 -6,1.6c-4.9,1.5 -9.8,2.2 -14.8,0c-2.3,-1 -4.9,-1.4 -7.2,-2.7c-2.1,-1.2 -3.7,-3 -5.4,-4.7c-0.2,-0.2 -0.4,-0.5 -0.4,-0.8c-0.2,-0.7 -0.5,-1.5 0.3,-2c0.7,-0.5 1.2,0.2 1.6,0.7c0.7,0.9 1.6,1.5 2.8,1.7c0.6,0.1 1.3,0.3 1.8,0.7c2.1,1.6 4.2,1 6.3,-0.1c7.6,-3.9 8,-12.1 2.7,-17.3c-1.6,-1.6 -3.3,-3 -5.4,-3.9c-3.5,-1.5 -6.4,-3.6 -8.7,-6.6c-1,-1.4 -1.2,-1.3 -2.2,0.1c-2.6,3.6 -5.5,6.9 -8.7,9.9c-2,1.9 -4,3.6 -6.9,4c-1,0.1 -1.7,0.8 -1.9,1.9c-0.8,4.2 -2.6,7.9 -5,11.3c-1.7,2.4 -3.6,4.8 -7,4.9c-0.5,0 -0.9,0.3 -1.4,0.5c-5.5,2 -10.8,1 -15.6,-2.1c-2.1,-1.3 -4.5,-2.4 -6.1,-4.5c-1,-1.3 -2.2,-2.4 -2.7,-3.9c-1.3,-3.8 -3.5,-7.2 -4.2,-11.2c-0.3,-1.9 -0.6,-3.8 -0.1,-5.8c-1.1,0.1 -1.6,0.7 -2.1,1.3c-2.8,3 -6.1,5.4 -9.4,7.7c-1.5,1 -3.3,1.6 -5.1,2c-1.3,0.3 -2,0.9 -1.9,2.3c0.2,3 0.1,5.9 0.4,8.9c0.4,3.9 0.2,7.8 -0.4,11.7c-0.2,1.4 0,2.7 -0.2,4c-0.6,5.4 -1.7,10.8 -3.6,15.9c-1.5,4.2 -3.7,8.3 -7.1,11.5c-0.6,0.6 -1,1.3 -1.5,1.9c-0.9,1 -1.7,2.1 -3.3,2.2c-0.9,0 -1.5,0.8 -2.2,1.4c-1.9,1.6 -3.7,3.4 -6.5,3.9c-3.6,0.6 -6.8,-0.6 -8.5,-3.9c-2.1,-3.8 -2.7,-7.8 -2.2,-12c0.6,-4.6 1.8,-9.1 3.3,-13.5c1.7,-5 3.3,-10.3 7.3,-14.2c0.4,-0.4 0.7,-1.1 1,-1.6c1.3,-2.1 2.6,-4.2 4.5,-5.9c1.5,-1.3 2.1,-2.9 2,-4.9c-0.3,-7.7 -0.5,-15.5 -0.6,-23.2c-0.1,-4 0.2,-8 0.3,-12c0,-0.4 0.2,-0.8 0.1,-1.2c-0.7,-2.7 0.4,-5.2 0.7,-7.8c0,-0.4 0.2,-0.8 0.2,-1.2c-0.2,-5.1 1.7,-9.9 2.7,-14.8c0.4,-2 1.9,-3.8 2.9,-5.7c0.1,-0.2 0.4,-0.4 0.4,-0.6c1.2,-3.7 4.4,-5.7 7,-8.2c1.1,-1.1 2.7,-1.4 4.1,-1.8c1,-0.3 2.1,-0.1 3,-0.7c0.4,-0.3 0.9,-0.1 1.4,0.1c2.9,1.1 5.4,2.8 7.8,4.6c1.7,1.2 2.3,3.3 2.6,5.3c0.3,2.5 0.2,4.9 -0.4,7.4c-1,3.6 -1.7,7.3 -2.7,10.9c-0.6,2.3 -1.5,4.5 -2.4,6.8c-1.4,3.7 -2.8,7.3 -3.9,11.1c-0.9,3.3 -2.6,6.4 -4.2,9.4c-0.8,1.6 -1.5,3.2 -2.2,4.8c-0.6,1.5 -0.5,3 -0.4,4.5c0.1,1 0.7,1.2 1.5,1c0.5,-0.1 1.1,-0.4 1.5,-0.7c5.2,-3.6 10.2,-7.4 14.7,-11.9c0.9,-0.9 1.6,-2 2,-3.2c0.5,-1.6 1.4,-2.8 2.6,-3.9c2.1,-2.1 4.4,-3.9 6.7,-5.8c3.1,-2.6 6.7,-3.2 10.3,-2.3c2.7,0.7 4.8,2.8 5.7,5.7c0.5,1.6 0.9,1.8 2.3,0.9c2.7,-1.9 5.4,-1.1 7.8,0.3c3.6,2.1 5.3,5.7 6.3,9.6c0.6,2.4 0.4,4.9 0.4,7.4c0,2 0.4,2.2 2.1,1.2c0.3,-0.2 0.7,-0.4 1,-0.6c5.2,-4 9.5,-8.7 12.8,-14.4c0.5,-0.9 0.9,-1.9 0.6,-3c-0.5,-1.7 0.1,-3 1.1,-4.2c2.2,-2.8 5,-4.7 8.4,-6c4,-1.5 7.5,-0.8 11.1,1c2.7,1.3 3.4,4.6 1.6,6.9c-1.5,1.9 -2.6,4.2 -4.8,5.6c-1.2,0.8 -1.2,1.5 -0.6,2.9c0.6,1.4 1.8,2.4 3,3.4c2.7,2.3 5.8,4.3 8.2,6.9c3.4,3.7 4.7,8 4.3,13c-0.1,1.3 -0.1,2.7 -0.4,4.1c-0.4,1.8 -0.7,3.6 -1.8,5.2c-0.2,0.3 -0.3,0.6 -0.1,0.9c0.3,0.4 0.7,0.3 1.1,0.2c3.7,-1.5 7.4,-2.9 9.8,-6.5c1.2,-1.8 2.6,-3.6 4,-5.4c0.4,-0.6 0.9,-1.2 1.8,-0.9c0.8,0.3 0.7,1 0.7,1.6c0,1.1 0.4,2 1,2.9c1.7,2.3 3.8,4.1 6.3,5.4c1.5,0.7 3.1,1.3 4.7,1.9c1.8,0.6 2.5,0.4 3.7,-1.2c0.5,-0.6 1,-1.3 1.5,-1.8c1.2,-1.1 1.6,-2.6 1.7,-4.1c0.5,-5.3 -1.1,-9.8 -4.9,-13.5c-2.4,-2.4 -5,-4.8 -7.6,-6.9c-2.8,-2.3 -4.4,-5.2 -5.1,-8.7c-0.6,-3.3 1.6,-7.9 4.5,-9.7c3.5,-2.2 7.2,-2.9 11.2,-2c1.3,0.3 2.7,0.2 4,0.5c1.7,0.4 3.1,1.2 4.2,2.6c0.7,1 1.5,1.9 2.1,2.9c1.2,1.8 1.1,3.8 -0.2,5.5c-1.4,1.8 -2.5,2.1 -4.8,1.2c-0.9,-0.3 -1.6,-0.5 -2.5,0c-1.8,1 -2.1,1.7 -1.4,3.7c1,3.1 2.8,5.5 5.1,7.6c3.5,3.1 6,7 7.9,11.3c1.3,2.8 1.5,5.7 0.8,8.6c-0.4,1.8 0,2.3 1.9,2.2c4.7,-0.3 8.1,-2.6 10.2,-6.9c0.5,-1.1 0.5,-2.2 0.5,-3.3c-0.1,-7.2 0.6,-14.4 1.9,-21.5c0.3,-1.8 0.8,-3.6 1.6,-5.3c1.3,-2.9 3,-3.8 6.1,-3.3c0.2,0 0.3,0.1 0.5,0.1c4,0.3 5.6,1.9 5.6,6.8c0,4.3 -0.7,8.6 -1.9,12.7c-1.8,5.8 -1.8,11.6 -0.7,17.5c0,0.2 0.1,0.5 0.2,0.7c1,3.2 2,3.5 4.5,1.4c2.8,-2.4 5.4,-5 8,-7.6c1.6,-1.7 2.9,-3.6 4,-5.7c0.4,-0.7 0.5,-1.5 0.6,-2.3c0.7,-8.3 1.9,-16.5 2.5,-24.8c0.3,-3.7 1.2,-7.3 1.4,-10.9c0.2,-4.7 1.5,-9.3 1.9,-14c0.2,-2.4 0.8,-4.7 1.5,-7c0.9,-3 3,-5.1 5.4,-6.8c2.6,-1.8 6.7,-1.5 9.5,1.7c1.6,1.9 2.3,4 1.9,6.5c-0.3,1.7 -0.5,3.3 -0.8,5c-1,5.7 -1.6,11.4 -2.3,17.1c-0.7,6 -1.9,12 -3.1,17.9c-0.9,4.5 -1.9,8.9 -2.5,13.4c-0.5,3.9 -0.6,7.8 0.1,11.7c0.5,2.8 1.8,3.4 4.5,2.2c4,-1.9 7.1,-4.8 9.7,-8.3c0.9,-1.2 1.6,-2.4 2.4,-3.6c0.3,-0.5 0.7,-0.9 1.1,-1.3c0.5,-0.4 1.1,-0.9 1.7,-0.4c0.5,0.4 0.2,1.1 -0.1,1.5c-0.8,1.6 -1.9,3 -1.2,4.9c0.1,0.4 -0.4,0.9 -0.7,1.2c-1.2,1.2 -2.3,2.3 -3.8,3.2c-2.6,1.6 -5,3.5 -6.9,5.8c-1.9,2.2 -4.3,3.8 -6.9,4.6c-3.1,1 -6.6,1.3 -9.3,-1.6c-1.8,-2 -3.8,-3.9 -4.5,-6.7c0.1,-0.1 -0.1,-0.6 -0.8,-1.3zm-158.4,-23c-0.2,-0.1 -0.4,-0.2 -0.6,-0.4c-1.3,2.3 -3.3,3.8 -4.9,5.8c-1.6,2 -2.3,4.3 -3.4,6.5c-2.4,4.8 -1.5,9.5 -0.1,14.2c0.2,0.6 0.5,1.1 1,1.6c1.9,1.9 5.9,3.3 8.9,1.9c3.2,-1.4 6.1,-3.1 7.9,-6.3c1.1,-1.9 2.3,-3.9 3,-6c0.6,-1.8 0.3,-2.4 -1.4,-3.2c-0.9,-0.5 -1.9,-0.9 -2.8,-1.3c-4.8,-2.3 -7.6,-5.9 -7.5,-11.5c-0.1,-0.4 -0.1,-0.8 -0.1,-1.3zm-59.8,31.9c-3.2,3.2 -5.2,6.9 -7.4,10.5c-0.8,1.3 -1.9,2.7 -1.9,4.3c0,1 -0.2,1.9 -0.5,2.8c-1.3,4 -2.6,8.1 -3.3,12.2c-0.4,2.4 -1,4.9 -0.5,7.3c0.6,2.8 3.7,4.3 5.9,2.5c2.8,-2.2 5.5,-4.6 6.6,-8.3c1.9,-6.5 2.1,-13 1.9,-19.7c-0.1,-3.1 -0.6,-6.2 -0.2,-9.3c0,-0.6 -0.1,-1.3 -0.6,-2.3zm16.7,-40.4c0.2,0 0.3,0 0.5,0.1c0.1,-0.3 0.3,-0.6 0.4,-0.8c2.4,-6.5 5,-12.9 6.4,-19.7c0.8,-3.7 1.8,-7.4 2.1,-11.3c0.1,-1.1 0.2,-2.2 -0.1,-3.3c-0.1,-0.6 -0.5,-1 -1.1,-1.1c-0.6,-0.1 -0.9,0.3 -1.1,0.8c-0.9,1.7 -2.5,3.1 -2.4,5.3c0,0.6 -0.5,1.2 -0.8,1.7c-0.4,0.8 -0.7,1.6 -0.8,2.5c-0.4,3.8 -1.4,7.5 -2.3,11.2c-1.1,4.8 -0.6,9.7 -0.8,14.6zm56.6,14.1c0.1,-1.8 -0.1,-3.6 -0.5,-5.3c-0.7,-2.5 -1.5,-4.9 -4.1,-6.1c-2.1,-1 -3.8,-0.6 -4.8,1.5c-0.8,1.7 -1.4,3.5 -1.4,5.5c-0.1,2.1 0.6,3.9 1.9,5.5c1.9,2.3 4.5,3.5 7.2,4.6c0.7,0.3 1.1,0 1.2,-0.7c0.3,-1.7 0.6,-3.4 0.5,-5z"/>
     <path fill="#ffffff" id="svg_6" d="m490.6,396.5c-1.4,1.9 -1.5,4 -2.2,5.9c-0.7,2.1 -2.4,3.6 -3.8,5.1c-2.3,2.5 -4.7,5 -7.1,7.5c-1.2,1.3 -2.9,2.2 -4.5,3.1c-1.4,0.8 -2.9,1.3 -4.4,1.8c-1.2,0.4 -2.6,0.4 -3.8,0c-2.6,-0.9 -5.3,-1.1 -7.8,-2.1c-0.5,-0.2 -1.1,-0.3 -1.6,-0.6c-3.9,-2.5 -7.2,-5.6 -8.3,-10.4c-0.2,-0.8 -0.4,-1.5 -0.7,-2.3c-0.1,-0.3 -0.2,-0.6 -0.8,-0.7c-2.1,2.7 -4.6,5.1 -7.1,7.5c-3.2,3 -6.9,5.5 -10.6,7.8c-2.8,1.7 -6.1,1.6 -9.3,1.5c-3.3,-0.1 -6.4,-1.3 -9.4,-2.6c-2.4,-1 -4,-3.1 -5.3,-5.3c-1.8,-3.1 -2.2,-6.4 -2,-9.9c0,-0.5 0.1,-1 -0.5,-1.3c-0.2,0.1 -0.5,0.2 -0.5,0.3c-1.3,2.5 -3.5,4.6 -4.4,7.4c-0.2,0.5 -0.5,1 -0.8,1.4c-4.2,5.7 -8.9,10.9 -15,14.7c-2.2,1.4 -4.5,1.6 -7.1,0.8c-3.7,-1.2 -5.9,-3.6 -7.1,-7.1c-0.9,-2.4 -1.4,-4.7 -1.4,-7.3c0.1,-2.9 -0.1,-5.7 0.3,-8.6c0.5,-3.1 1.6,-6 2.6,-8.9c0.2,-0.4 0.4,-0.9 0.6,-1.3c0.9,-2.3 0.9,-2.3 -1.1,-3.8c-0.8,-0.6 -1.5,-1.2 -2,-2c-1.6,-2.2 -3.3,-4.3 -4.8,-6.6c-0.7,-1 -1,-1.3 -2.2,-0.8c-3,1.3 -5.7,2.9 -8.5,4.4c-2.3,1.3 -4.6,2.2 -7,2.9c-1.8,0.5 -3.1,2 -4.8,2.6c-0.6,0.2 -0.7,1 -0.7,1.7c0,4.6 -0.2,9.3 0.2,13.9c0.4,5.1 0.2,10.2 -0.4,15.3c-0.4,3.1 -0.5,6.2 -1.1,9.3c-1,5.3 -3.1,10.2 -6.1,14.7c-0.9,1.4 -2,2.7 -2.9,4.1c-0.6,0.9 -1.3,1.6 -2.3,2.1c-0.6,0.3 -1.2,0.8 -1.7,1.3c-2.7,2.9 -6.3,4 -10.1,4.6c-2.7,0.4 -4.8,-0.8 -6.3,-3c-2.7,-3.9 -3.5,-8.2 -2.9,-12.8c0.6,-4.8 1.4,-9.5 2.5,-14.2c1.8,-7.5 4.5,-14.6 9.2,-20.9c2.2,-3 4.2,-6.2 7,-8.7c1,-0.9 0.9,-2 0.9,-3.1c0.1,-3.4 -0.6,-6.8 -0.7,-10.3c-0.2,-4.4 -0.4,-8.8 0,-13.2c0.3,-2.9 0.2,-5.7 0.6,-8.6c1.2,-8.5 3.1,-16.8 8.1,-24c2.3,-3.3 4.6,-6.5 7.8,-8.9c5.7,-4.2 11.1,-2.3 15.3,2.3c0.7,0.7 0.7,1.6 0.7,2.5c0.3,5.5 -0.5,10.8 -2.7,15.9c-1.4,3.2 -2.7,6.5 -4.3,9.6c-2,3.8 -4.4,7.2 -7.5,10.1c-1.8,1.7 -3,3.8 -3.4,6.4c-0.4,2.9 -0.2,5.7 -0.2,8.6c0,1.3 0.3,1.4 1.4,1c3.5,-1.3 7,-2.6 10.3,-4.4c2.6,-1.5 5.2,-2.9 7.7,-4.4c1.3,-0.8 1.7,-1.9 1.4,-3.6c-0.6,-3.7 -1.2,-7.5 1,-11c1.9,-3.1 4.2,-5.7 8.3,-5.4c1.3,0.1 2.4,0.3 3.3,1.3c0.1,0.1 0.1,0.1 0.2,0.2c4.6,4 4.3,6.8 0.7,11.2c-0.9,1.1 -2,2.1 -3,3.1c-0.8,0.8 -1,1.5 -0.4,2.6c0.6,1.2 1.1,2.5 1.6,3.7c0.3,0.8 0.9,1.2 1.8,1.2c3.1,-0.2 6.2,-0.3 8.8,-2.5c2.2,-1.8 4.8,-2.1 7.5,-1c1.6,0.7 3.5,0.9 4.3,2.8c0.9,2.4 1.1,4.8 0.5,7.3c-0.7,2.7 -2.1,5 -3.6,7.3c-2.7,4.4 -5.4,8.7 -8.2,13c-1.9,2.9 -2.1,6.2 -1.8,9.5c0.1,1.7 1.1,2.2 2.7,1.8c1.4,-0.4 2.5,-1.4 3.5,-2.4c4,-4.3 7.9,-8.6 11.3,-13.4c2,-2.9 3.7,-6 5.7,-8.9c0.8,-1.2 1.7,-2.3 1.2,-3.9c-0.2,-0.5 0.1,-1.2 0.4,-1.6c2.7,-3 4.2,-6.8 7,-9.7c2,-2.1 4.1,-3.5 7.1,-4c4.2,-0.7 7.9,0.1 11.4,2.3c0.9,0.6 1.6,1.3 1.9,2.4c0.3,1.4 0.9,2.5 1.8,3.6c2.7,3.3 2.1,11.4 -3.1,14c-0.4,0.2 -0.8,0.5 -1.1,0.9c-3.2,2.9 -6.8,5 -11.1,5.7c-1.3,0.2 -2,0.8 -2.4,2c-1.2,3.3 -0.3,7.4 2.1,9.5c2.9,2.5 6.6,2.7 10,0.9c7.4,-4.1 13,-9.9 17.5,-17c0.6,-0.9 1,-1.8 1.1,-2.9c0.4,-6.2 3.3,-11.3 7.9,-15.3c2.4,-2 4.6,-4.2 7.6,-5.4c3.9,-1.6 12,-1.2 15.6,3.1c0.9,1.1 1.6,2.2 1.7,3.6c0.1,1.3 0.1,2.6 0.2,3.8c0.2,3.2 -1.3,5.6 -3.3,7.9c-1.6,1.9 -3.1,3.6 -5.5,4.4c-0.9,0.3 -1.7,1.1 -2.5,1.8c-1.3,1.1 -2.5,2.2 -4.2,2.7c-1.3,0.4 -1.7,1.3 -1.6,2.6c0.2,2.7 1.2,5.1 3.1,7.1c2.4,2.5 7.1,2.8 9.8,0.2c3.6,-3.4 7.4,-6.6 10.4,-10.6c1.2,-1.6 2.6,-3 4,-4.5c0,-0.4 0.4,-0.7 1.4,-0.4zm-167.5,3.9c-0.3,0.1 -0.4,0.2 -0.5,0.3c-0.4,0.5 -0.9,0.9 -1.3,1.4c-6,6.9 -10,14.8 -11.6,23.8c-1,5.2 -1.5,10.4 -2.2,15.6c-0.2,1.5 0.1,3 0.7,4.4c0.7,1.7 1.9,3 3.8,3.2c2,0.1 3.1,-1.1 4,-2.8c4.4,-8.6 6.6,-17.7 7.5,-27.3c0.2,-2.2 -0.1,-4.5 0,-6.7c0.2,-3.4 0.2,-6.7 0.2,-10.1c0,-0.5 0.1,-1.2 -0.6,-1.8zm15.6,-36.8c0.1,0 0.3,0 0.4,-0.1c0.2,-0.2 0.4,-0.5 0.6,-0.7c2.7,-3.3 4.6,-7.1 6.3,-11c1.2,-2.8 2.4,-5.6 3,-8.6c0.4,-2.3 1.1,-4.6 0.5,-7.1c-4.3,3.1 -11.7,22 -10.8,27.5zm123.4,35c2.8,-1.4 5.2,-3.2 7.6,-5.1c3.7,-3 4.8,-7 4.3,-11.6c-0.1,-0.7 -0.2,-1.5 -1,-1.8c-0.9,-0.2 -1.5,0.4 -2.1,0.9c-0.3,0.3 -0.5,0.8 -0.7,1.2c-0.7,1.2 -1.3,2.4 -2.1,3.5c-2.2,3.1 -4.2,6.4 -5.5,10c-0.5,0.9 -1.1,1.7 -0.5,2.9zm-43.7,0.4c1.2,-0.1 2.1,-0.7 3,-1.4c2.4,-2 4.7,-4.1 6.3,-6.8c1.1,-1.8 1.2,-3.9 0.9,-6c-0.1,-0.4 -0.2,-0.8 -0.7,-0.9c-0.8,0.9 -9.2,14.1 -9.5,15.1zm-48.5,-36.5c0,-0.3 0,-0.6 -0.1,-0.8c-0.1,-1.1 -0.4,-2.1 -1.6,-2.4c-1.2,-0.3 -1.9,0.3 -2.5,1.3c-1.1,1.7 -1.2,5.5 -0.2,7.1c0.4,0.6 0.8,0.7 1.4,0.2c1.7,-1.5 2.9,-3.2 3,-5.4z"/>
     <path fill="#ffffff" id="svg_7" d="m673.9,406.9c-0.9,1.2 -1.6,1.8 -2.4,2.5c-0.6,0.5 -1.3,1.1 -1.6,1.8c-0.7,2.2 -2.4,3.5 -4,5c-1.9,1.9 -3.5,4.2 -5.8,5.7c-3,2 -6.2,2.5 -9.6,1.6c-1.8,-0.5 -3.2,-1.5 -4,-3.2c-2,-3.9 -4.3,-7.7 -5.3,-12c-0.1,-0.4 -0.1,-1 -0.6,-1.2c-0.7,-0.2 -1,0.5 -1.2,0.9c-2.1,3.3 -4.9,5.9 -8,8.2c-2.3,1.6 -4.8,3.2 -7.7,3.6c-1.9,0.3 -3.6,0 -5.2,-1.3c-1.9,-1.5 -4.1,-2.8 -5.3,-5.1c-0.5,-0.9 -1.1,-0.8 -1.8,-0.2c-0.1,0.1 -0.1,0.1 -0.2,0.2c-3.2,3.5 -7.5,5.4 -11.3,8c-1.2,0.8 -2.4,1.6 -3.6,2.4c-2.1,1.3 -4.5,2.1 -7,2.3c-2,0.1 -3.5,-0.6 -4.3,-2.4c-1.3,-2.7 -2.1,-5.5 -1.5,-8.6c0.5,-2.5 1,-5 1.8,-7.4c0.2,-0.6 0.4,-1.2 0.4,-1.9c0,-5.6 1,-11.2 1,-16.7c0,-4.3 0.1,-8.6 -0.3,-12.9c-0.1,-1.4 -0.4,-2.5 -1.9,-3c-1.7,-0.5 -3.3,-1.4 -4.9,0.1c-2.3,2.2 -4.8,4.2 -6.6,7c-0.8,1.3 -0.9,2.5 -0.8,3.9c0.4,3.7 0.8,7.5 0.8,11.2c0,1.5 -0.2,3 -0.5,4.5c-0.4,1.9 -1.6,3.1 -2.9,3.1c-1.4,0 -2.8,-1.3 -3.2,-3.1c-0.3,-1.2 -0.4,-2.4 -0.4,-3.6c0,-4.3 0,-8.6 0,-13c0.1,-3.8 -0.4,-7.6 -0.5,-11.9c-1.6,1.4 -2.9,2.4 -4.2,3.6c-1.8,1.6 -3.5,3.3 -5.3,4.8c-2.3,1.9 -3.7,4.5 -5.6,6.7c-1.5,1.7 -1.7,4.1 -1.9,6.3c-0.2,3 -0.1,6.1 -0.4,9.1c-0.4,4.1 -1.1,8.2 -2.7,12.1c-0.5,1.3 -1.5,2.2 -2.7,2.9c-1.2,0.7 -2.2,1.5 -3,2.6c-1.3,1.8 -3.2,3.1 -5.1,4.3c-0.3,0.2 -0.7,0.3 -1.1,0.4c-1.8,0.5 -2.4,0 -2.1,-1.9c1.2,-7.8 2.4,-15.6 3.7,-23.4c0.8,-5.1 1.1,-10.3 1.2,-15.5c0.1,-5.2 0.1,-10.4 -0.2,-15.6c-0.1,-2.3 0,-4.6 -0.8,-6.8c0,-0.1 0,-0.3 -0.1,-0.5c-0.2,-3.2 0.5,-3.9 3.6,-3.5c1.3,0.2 2.5,0.5 3.6,1.2c0.7,0.5 1.6,0.8 2.4,1c4.1,0.9 5.9,2.6 6.6,6.8c0.6,3.4 0.6,6.8 -0.3,10.2c-0.1,0.4 -0.3,0.8 0,1.3c0.8,0.1 1.2,-0.5 1.7,-1c3.1,-3 6.7,-5.4 9.9,-8.3c3.6,-3.4 6.4,-1.6 8,1.7c1,2.1 0.8,4.4 1.4,6.5c0.8,0.3 1,-0.4 1.3,-0.8c1.7,-1.9 3.7,-3.5 5.7,-5.1c3.2,-2.4 6.9,-3.3 10.8,-3.6c1.2,-0.1 2.4,-0.1 3.6,-0.2c1.9,-0.2 3.3,0.5 4.1,2.2c2.3,4.5 3.8,9.2 3.6,14.4c-0.3,6.7 -1,13.4 -1.3,20.1c-0.1,1.9 -0.1,3.8 0,5.8c0,1.3 0.7,1.8 1.9,1.4c3.1,-1.1 6,-2.6 8.6,-4.6c0.6,-0.4 0.8,-1 0.7,-1.7c-0.1,-1.7 0.3,-3.3 1.1,-4.8c0.7,-1.4 1.1,-3 1.5,-4.6c1.3,-4.8 3.3,-9.4 5.9,-13.6c2.5,-4 5.9,-7.2 10.2,-9.1c3.9,-1.8 10.9,0.4 13.1,4c0.3,0.5 0.5,1 0.7,1.5c0.6,2 -0.6,3.6 -2.7,3.4c-2,-0.2 -4,-0.8 -5.4,-2.4c-2.3,-2.7 -4.8,-2.1 -7.1,0c-1.3,1.2 -2.4,2.5 -3.3,4.1c-1.4,2.7 -2.9,5.4 -4.2,8.1c-2.6,5.4 -4,11.1 -4.3,17.1c0,0.6 0,1.1 0,1.7c0.4,2.9 1.6,4.1 4.5,4.4c2.2,0.2 4.3,-0.3 6.3,-1c4.8,-1.7 7.7,-5.4 10.7,-9.3c1.9,-2.5 2.4,-5.2 2.8,-8.2c0.8,-5.8 1.9,-11.7 4.9,-16.9c0.7,-1.3 1.6,-2.4 2.7,-3.3c2.1,-1.7 4.3,-1.9 6.7,-0.8c1.6,0.7 2.6,1.9 3,3.5c0.4,1.7 0.6,3.5 0.2,5.2c-0.8,3.3 -0.9,6.8 -2.2,10.1c-0.4,0.9 -0.3,1.9 -0.3,2.8c0,2.7 -0.5,5.3 -1.3,7.8c-1.1,3.2 -1,6.6 -1,10c0,1.6 0.8,2.9 1.7,4.2c1,1.2 1.6,1.3 2.8,0.4c4.6,-3.6 9,-7.4 12.6,-12.1c0.2,-0.3 0.4,-0.7 0.7,-0.9c2.1,-1.9 2.4,-4.4 2.7,-7.1c0.8,-6.6 3,-12.7 7.1,-18.1c2.7,-3.6 5.8,-6.6 9.4,-9.1c1.1,-0.8 2.3,-1.4 3.6,-1.9c4.3,-1.7 8.2,-0.1 10.1,4.1c0.5,1.2 0.9,2.6 1.4,3.8c0.3,0.8 0.2,1.6 0,2.4c-0.2,0.9 -0.5,1.7 -1.6,1.8c-0.9,0.1 -2.3,-0.9 -2.6,-1.7c-0.2,-0.7 -0.1,-1.6 -1,-2.3c-1.7,2.9 -3.8,5.4 -5.7,8.2c-2.5,3.7 -4.2,7.9 -6.5,11.7c-2,3.4 -3.4,7 -4.3,10.9c-0.4,1.6 -0.4,3.2 -0.3,4.8c0.2,2.6 2,4.5 4.7,4.6c3.3,0.2 6.4,-0.2 9.4,-2c5.8,-3.5 10,-8.3 13.4,-14c1.2,-2.1 2.3,-4.2 3.6,-6.3c0.3,-0.4 0.5,-1.2 1.2,-1c0.7,0.3 0.3,1 0,1.5c-1,2 -1.9,4.1 -2.9,6c-2.1,4.1 -4.3,8.2 -7.5,11.6c-2.7,2.8 -5.6,5.5 -9.3,7c-2.8,1.2 -5.8,1.1 -8.7,1.1c-0.7,0 -1.4,-0.4 -2,-0.7c-1.8,-1 -3.6,-2.1 -5.5,-3c-1.7,-0.8 -2.7,-2.3 -3.4,-3.9c-0.8,-2.4 -1.7,-4.6 -2.8,-7.1z"/>
     <path fill="#ffffff" id="svg_8" d="m397.6,106.5c-1.1,0.4 -2.1,0.2 -3.1,0.1c-9.6,-0.8 -19.3,-1.1 -29,-0.8c-24.6,0.8 -48.9,4.2 -72.6,11c-15.8,4.5 -31.1,10.2 -46,17.2c-18.9,8.9 -36.6,19.7 -53.2,32.3c-13.3,10.1 -25.7,21.3 -37.2,33.6c-21.2,22.7 -38.5,48.2 -51.8,76.3c-10.1,21.4 -17.5,43.6 -22.2,66.8c-0.1,0.5 -0.3,0.9 -0.3,1.4c-0.1,1.5 -0.8,2.3 -2.3,2.7c-1.9,0.6 -3.7,1.4 -5.6,2.1c-1.2,0.4 -1.5,0.3 -1.3,-0.9c0.2,-1.3 0.5,-2.7 0.7,-4c4.9,-24.8 12.7,-48.7 23.5,-71.6c12.4,-26.3 28.2,-50.3 47.5,-72.1c23.1,-26 49.8,-47.6 80.2,-64.5c23.9,-13.3 49.1,-23.2 75.7,-29.8c12.1,-3 24.4,-5.2 36.8,-6.6c5.4,-0.6 10.8,-1.1 16.2,-1.5c7.6,-0.4 15.2,-0.9 22.8,-0.8c4.2,0.1 8.3,0.3 12.5,0.4c1.2,0 2.2,0.4 2.9,1.4c1.7,2.3 3.8,4.1 5.6,6.2c0.1,0.3 0.3,0.5 0.2,1.1z"/>
     <path fill="#ffffff" id="svg_9" d="m148.8,609c2.9,-0.3 5.5,0.5 8.1,0.7c5,0.4 10,0.8 15,1.3c1.9,0.2 3.8,0.4 5.7,0.6c9.4,0.7 18.8,1.5 28.2,2.2c13.8,1.1 27.6,1.2 41.4,1.1c4.3,-0.1 8.6,0.3 12.9,0.3c5.7,-0.1 11.3,0.3 17,0c2.4,-0.1 4.9,0.2 7.4,0.1c8.5,-0.2 16.9,-0.2 25.4,-0.4c3,-0.1 5.9,-0.4 8.9,-0.4c6.4,0 12.8,0.1 19.1,-0.2c4.4,-0.2 8.8,-0.4 13.2,-0.7c4.6,-0.3 9.3,-0.5 13.9,-0.5c1.6,0 3.2,-0.2 4.8,-0.2c6.9,-0.2 13.9,-0.3 20.8,-0.6c7.4,-0.3 14.8,-0.2 22.3,-0.2c4.2,0 8.5,-0.2 12.7,-0.3c3.7,-0.1 7.5,-0.1 11.2,-0.4c5.9,-0.5 11.8,0 17.7,-0.4c7.3,-0.5 14.5,-0.5 21.8,-0.1c5.4,0.3 10.9,-0.1 16.3,0.5c1.9,0.2 4,0 5.9,0.1c9.6,0.3 19.2,0.4 28.8,0.7c6.6,0.2 13.2,0.3 19.9,0.7c3.7,0.2 7.5,0 11.2,0.3c5.4,0.4 10.8,0.6 16.3,0.8c5.3,0.3 10.7,0.5 16,0.7c0.6,0 1.2,0 1.4,0.6c0.2,0.5 -0.3,0.9 -0.6,1.2c-1.6,1.6 -3.2,3.1 -4.7,4.8c-0.9,1 -2.1,1.1 -3.3,1c-6.4,-0.2 -12.8,-0.4 -19.2,-0.5c-9.4,-0.1 -18.7,0.2 -28.1,-0.1c-10.1,-0.3 -20.1,-0.2 -30.2,-0.6c-6.3,-0.3 -12.6,-0.2 -18.9,-0.2c-10,0.1 -20,-0.4 -29.9,-0.5c-8.1,-0.1 -16.2,-0.2 -24.2,-0.6c-9.4,-0.4 -18.9,-0.3 -28.3,-0.5c-4.6,-0.1 -9.3,-0.3 -13.9,-0.3c-9.4,0.2 -18.8,0.5 -28.2,0.8c-4.6,0.1 -9.3,0 -13.9,0.1c-10.2,0.2 -20.3,0.2 -30.5,0.6c-8.7,0.3 -17.4,0.2 -26.1,0.5c-11.4,0.4 -22.9,0.7 -34.3,0.8c-7.2,0.1 -14.4,0 -21.6,0c-4.7,0 -9.5,-0.3 -14.1,0.1c-4.5,0.3 -8.9,-0.1 -13.4,-0.2c-7.1,-0.2 -14.2,-0.2 -21.3,-0.4c-7.6,-0.3 -15.1,-0.6 -22.7,-0.9c-1.2,0 -2.4,-0.1 -3.6,0.1c-1.2,0.2 -2,-0.2 -2.8,-0.9c-3.2,-3 -6.1,-6.3 -9.1,-9.5c-0.1,-0.3 -0.2,-0.6 -0.4,-1.1z"/>
     <path fill="#ffffff" id="svg_10" d="m165.8,626.4c0.6,-0.7 1.1,-0.6 1.6,-0.6c4.5,0.2 8.9,0 13.4,0.3c5.3,0.4 10.6,-0.1 15.8,0.2c6.9,0.4 13.7,0.3 20.6,0.7c5.2,0.3 10.4,0.1 15.6,-0.1c5.5,-0.1 11,-0.2 16.5,-0.2c6.9,0 13.7,-0.1 20.6,-0.1c4.3,0 8.6,0.1 12.9,-0.1c4.6,-0.2 9.2,-0.3 13.9,-0.4c10.5,-0.3 20.9,-0.4 31.4,-0.6c8.2,-0.2 16.3,-0.1 24.4,-0.5c6.9,-0.3 13.9,-0.1 20.8,-0.5c11.5,-0.6 23,-0.5 34.5,-0.3c8,0.2 16,0 23.9,0.5c7.6,0.4 15.2,0.1 22.8,0.5c8.4,0.4 16.8,0.4 25.2,0.5c5.9,0.1 11.8,0.4 17.7,0.3c7.4,-0.2 14.8,0 22.2,0.3c14.7,0.5 29.4,0.1 44.1,0.4c4.6,0.1 9.3,0.3 13.9,0.4c0.5,0 1,-0.1 1.3,0.4c0.4,0.7 -0.3,1 -0.7,1.4c-3.3,2.9 -6.6,5.8 -10,8.7c-0.9,0.8 -1.9,1 -3.1,1c-5.7,-0.3 -11.5,-0.7 -17.2,-1c-5.1,-0.2 -10.2,-0.4 -15.3,-0.6c-8.9,-0.4 -17.9,-1 -26.8,-1.3c-7.8,-0.3 -15.7,-0.6 -23.5,-0.7c-11.7,-0.2 -23.3,-0.6 -35,-1c-8.1,-0.3 -16.3,-0.5 -24.4,-0.9c-7,-0.3 -14.1,-0.3 -21.1,-0.6c-6.2,-0.3 -12.5,-0.3 -18.7,-0.4c-7.7,-0.1 -15.3,-0.3 -23,-0.3c-4.9,0 -9.9,0.4 -14.8,0.2c-9.8,-0.3 -19.7,-0.2 -29.5,-0.3c-9.2,-0.1 -18.4,0.2 -27.6,0.5c-8.1,0.3 -16.1,0.9 -24.2,1.4c-8,0.4 -16,0.8 -23.9,1.1c-8.1,0.3 -16.2,0.4 -24.2,0.2c-6.3,-0.1 -12.6,-0.3 -18.9,-0.5c-5.9,-0.2 -11.8,-0.4 -17.7,-0.3c-0.8,0 -1.6,0 -2.4,-0.1c-2.3,-0.2 -4.3,-1 -5.9,-2.8c-1.6,-1.6 -3.7,-2.8 -5.2,-4.8z"/>
     <path fill="#ffffff" id="svg_11" d="m201,654.1c0.7,-0.5 1.3,-0.3 1.9,-0.3c11.5,0.1 23,-0.7 34.5,-1.2c3.8,-0.1 7.6,0 11.5,-0.2c4.3,-0.2 8.6,-0.8 12.9,-0.7c6.9,0.1 13.7,-0.3 20.6,-0.6c6.5,-0.3 12.9,-0.2 19.4,-0.7c3.8,-0.3 7.7,0 11.5,-0.3c4.8,-0.3 9.6,-0.2 14.4,-0.5c6.9,-0.5 13.8,-0.3 20.6,-0.3c12.2,0 24.3,-0.1 36.5,0.1c3.3,0 6.7,-0.1 10,0.2c3.6,0.4 7.2,-0.2 10.8,-0.2c4.4,0.1 8.8,0.3 13.2,0.3c5.4,0 10.7,-0.1 16.1,0.1c8,0.3 16.1,0.3 24.2,0.7c5.9,0.3 11.8,0 17.7,0.3c9,0.4 18,0.8 27.1,1c4.7,0.1 9.4,0 14.1,0.4c6.6,0.5 13.2,0.3 19.9,0.8c2.5,0.2 5,0.1 7.4,0.2c0.5,0 1.1,-0.1 1.3,0.4c0.3,0.7 -0.4,1 -0.8,1.2c-2.7,1.8 -5.5,3.6 -8.2,5.4c-0.9,0.6 -1.9,0.8 -3,0.7c-7.7,-0.6 -15.5,-0.3 -23.2,-0.7c-5.6,-0.3 -11.2,-0.1 -16.8,-0.2c-21.5,-0.4 -43,-0.3 -64.5,-0.6c-8.6,-0.1 -17.1,0 -25.7,-0.4c-7.4,-0.4 -14.9,-0.2 -22.3,-0.5c-18.3,-0.6 -36.6,-0.3 -54.9,-0.2c-9,0.1 -18,0.6 -27.1,1.2c-5.2,0.4 -10.4,0.5 -15.6,0.5c-7.6,0.1 -15.2,0.1 -22.8,0.2c-6.1,0.1 -12.3,0.4 -18.4,0.2c-8.4,-0.3 -16.8,-0.1 -25.2,-0.2c-1.9,0 -3.8,-0.1 -5.7,0.2c-1.2,0.2 -2.4,0.1 -3.5,-0.6c-2.4,-1.6 -4.8,-3.2 -7.2,-4.8c-0.5,-0.2 -0.7,-0.4 -0.7,-0.9z"/>
     <path fill="#ffffff" id="svg_12" d="m219.7,666c1.1,-0.9 2.3,-0.7 3.5,-0.6c2.7,0.3 5.4,0.3 8.1,0c0.8,-0.1 1.6,0 2.4,0.1c0.7,0 1.4,0.2 2.1,0.2c7.9,-0.5 15.8,0.2 23.7,0c10.7,-0.3 21.4,-0.2 32.1,-0.5c6.9,-0.2 13.7,-0.8 20.6,-1.2c1.1,-0.1 2.2,-0.1 3.4,-0.1c5,0.1 10,-0.4 15.1,-0.3c11.4,0.2 22.8,-0.2 34.2,0c11.5,0.2 23,0 34.5,0.5c7.3,0.3 14.7,0.1 22.1,0.6c4.6,0.3 9.3,0.3 13.9,0c3.3,-0.2 6.5,0 9.8,0.1c7.1,0.1 14.2,0 21.3,0.3c4.1,0.2 8.3,0 12.4,0.1c3.8,0.1 7.7,-0.3 11.5,-0.2c11.5,0.4 23,0.7 34.5,0.9c0.7,0 1.4,-0.1 2,0.5c-0.1,0.9 -0.8,1 -1.3,1.3c-3,1.7 -6,3.3 -9,5c-1.4,0.8 -2.8,1 -4.4,1c-7.4,0 -14.7,-0.6 -22.1,-0.7c-8.9,-0.2 -17.7,-0.1 -26.6,-0.2c-9.7,-0.1 -19.4,-0.2 -29,-0.2c-8.4,0 -16.8,-0.1 -25.2,0.2c-11.7,0.5 -23.4,0.1 -35,0.4c-11.1,0.3 -22.2,0.9 -33.3,1.2c-8.6,0.2 -17.3,0.1 -25.9,0.2c-14,0.3 -28,0.5 -42,0.4c-12.3,-0.1 -24.6,-0.4 -36.9,-0.6c-1.3,0 -2.6,-0.2 -3.7,-0.8c-3.9,-2.1 -7.9,-4.3 -11.8,-6.5c-0.4,-0.2 -0.9,-0.4 -1,-1.1z"/>
     <path fill="#ffffff" id="svg_13" d="m560.2,644.1c-1.6,1.6 -3.2,2.7 -4.9,3.9c-0.6,0.4 -1.3,0.5 -2.1,0.4c-3.4,-0.3 -6.7,-0.2 -10.1,-0.3c-11.5,-0.3 -23,-0.7 -34.5,-1c-8.9,-0.3 -17.9,-0.5 -26.8,-1c-13.9,-0.7 -27.8,-0.9 -41.7,-1.2c-8.9,-0.2 -17.8,0 -26.6,-0.2c-27.8,-0.6 -55.7,-0.4 -83.5,-0.2c-6.7,0.1 -13.4,0.1 -20.1,0.7c-2.3,0.2 -4.6,0.1 -7,0.1c-7.8,0.2 -15.5,0.2 -23.3,0.6c-5,0.3 -10.1,0.2 -15.1,0.5c-9.3,0.6 -18.5,0.7 -27.8,1.1c-7.3,0.4 -14.5,0.5 -21.8,0.7c-6.6,0.2 -13.3,0.5 -19.9,0.4c-2,0 -3.7,-0.5 -5.3,-1.8c-2.2,-1.8 -4.5,-3.5 -6.8,-5.3c-0.5,-0.4 -1.1,-0.7 -1.3,-1.4c0.1,-0.7 0.7,-0.6 1.1,-0.6c2,0 4,-0.1 6,0.1c2.8,0.4 5.6,0.2 8.4,0.2c6.9,0.1 13.7,0.5 20.6,0.6c7.1,0.2 14.2,0 21.3,-0.1c5.8,-0.1 11.5,-0.4 17.2,-0.6c8.7,-0.4 17.4,-1.2 26.1,-1.7c5,-0.3 10.1,-0.5 15.1,-0.7c7.9,-0.3 15.8,0 23.7,-0.1c9.5,-0.2 19,0.2 28.5,0.2c14.2,-0.1 28.4,-0.1 42.7,0.1c6.2,0.1 12.4,0.3 18.7,0.5c9.3,0.4 18.7,0.5 28,0.9c5.9,0.3 11.8,0.2 17.7,0.7c3.8,0.4 7.7,0.1 11.5,0.3c8.1,0.4 16.1,-0.1 24.2,0.6c2.1,0.2 4.1,0 6.2,0.1c7.5,0.3 15,0.7 22.5,1c8.6,0.4 17.2,0.6 25.8,1.1c3.3,0.2 6.5,0.3 9.8,0.4c1.1,0.2 2.2,0.2 3.5,1z"/>
     <path fill="#ffffff" id="svg_14" d="m558.4,285.6c0,-3.8 0.1,-7.5 1.3,-11.1c0.4,-1.3 0.1,-2.3 -1,-3.2c-2.3,-1.7 -4,-4.2 -6.3,-5.9c-1,-0.7 -1.6,-1.8 -2.2,-2.8c-4.2,-7.2 -6.7,-15 -7.8,-23.2c-0.2,-1.8 0.6,-2.4 2.2,-1.7c0.6,0.3 1.3,0.7 1.8,1.2c5.1,4.3 10.9,7.6 16.9,10.3c0.4,0.2 0.7,0.3 1.1,0.4c2.7,0.4 5.4,0.7 8.1,1.1c1.3,0.2 2.5,-0.1 3.7,-0.8c1.1,-0.7 2.4,-1.3 3.5,-2c5.9,-3.8 12.6,-5.8 19.2,-8.1c7.6,-2.6 15.5,-3.9 23.4,-4.9c2.8,-0.3 5.8,-0.1 8.6,0c3.6,0.1 7.2,0.2 10.7,0.7c5.5,0.8 10.8,2.1 15.6,5c4,2.4 8.2,4.3 11.8,7.3c3.7,3.2 6.5,7 8.8,11.2c2.8,5.2 4.1,10.9 4.9,16.7c0.6,4 0.5,8.2 -0.2,12.2c-0.8,4.4 -2.6,8.5 -5.9,11.8c-3,3.1 -6.6,5.3 -10.3,7.2c-4,2.1 -8.3,3.8 -12.4,5.7c-5.3,2.4 -10.9,3.6 -16.4,5.2c-3.8,1.1 -7.7,2.1 -11.6,3c-6.3,1.4 -12.7,2.4 -19.2,1.6c-8.3,-1 -16.4,-2.4 -24.3,-5.2c-4.6,-1.6 -8.6,-4.1 -12.7,-6.7c-1.5,-1 -3.1,-2 -4.5,-3.2c-4.1,-3.7 -5.8,-8.5 -6.5,-13.8c-0.2,-2.8 -0.2,-5.4 -0.3,-8zm-8.2,-38.1c-0.4,0.8 -0.1,1.4 0,1.9c1.9,7.4 5.9,13.4 11.9,18.1c1.3,1 2.7,2 4.1,3c0.6,0.5 1.5,1.1 0.8,2c-1.6,1.9 -1.7,4.3 -2.1,6.5c-0.9,4.5 -0.4,9.1 0.2,13.6c0.3,2.8 1.1,5.4 3.2,7.5c2.8,2.8 5.3,5.7 8.5,8c4.4,3.1 9.4,4.2 14.4,5.8c3.1,1 6.3,1.1 9.4,1.7c4.1,0.8 8.2,1.2 12.4,1.1c3.5,-0.1 7,-0.6 10.4,-1.3c6.7,-1.5 13.4,-3 20,-5c8.7,-2.6 17.1,-6.2 24.8,-11.2c5,-3.2 7,-8.1 8,-13.6c0.3,-1.4 0.2,-2.9 0.3,-4.3c0.2,-2.2 0.3,-4.5 -0.2,-6.7c-1.2,-5 -2.3,-10 -4.9,-14.5c-1.6,-2.7 -3.5,-5.1 -5.8,-7.3c-2.9,-2.7 -6.5,-4.3 -9.9,-6.2c-5.9,-3.5 -12.2,-5.2 -18.9,-5.2c-0.6,0 -1.3,-0.1 -1.9,-0.1c-5.7,-0.6 -11.3,-0.4 -17,0.5c-7.6,1.2 -15.1,2.9 -22.2,5.7c-4.2,1.7 -8.6,2.9 -12.5,5.4c-3.6,2.3 -7.5,4 -12,2.4c-0.1,-0.1 -0.3,0 -0.5,0c-3.3,-0.2 -6.4,-1 -9.4,-2.5c-3.7,-1.7 -7.4,-3.4 -11.1,-5.3z"/>
     <path fill="#ffffff" id="svg_15" d="m503.7,678.3c-1.1,1.5 -2.3,1.7 -3.4,2.2c-2.9,1.5 -5.9,2.3 -9.2,2.2c-4.6,-0.2 -9.3,-0.1 -13.9,0c-8.4,0.2 -16.8,0.7 -25.2,0.8c-10.2,0.2 -20.5,-0.1 -30.7,0.2c-21.8,0.6 -43.7,0.1 -65.5,0.5c-11.6,0.2 -23.2,0.5 -34.8,1c-4.4,0.2 -8.8,0.2 -13.2,0.4c-11.5,0.4 -23,1 -34.5,1c-3.6,0 -7.2,0 -10.8,0c-1.1,0 -2.2,-0.1 -3.3,-0.5c-4,-1.7 -8.1,-3.5 -12.1,-5.2c-0.4,-0.2 -0.7,-0.3 -0.9,-0.9c0.8,-0.5 1.6,-0.3 2.5,-0.3c11.4,0.1 22.9,0.6 34.3,0.4c6.4,-0.1 12.8,0.2 19.2,-0.1c11.2,-0.5 22.4,-0.2 33.6,-0.4c9.8,-0.2 19.6,-0.5 29.4,-1c6.4,-0.4 12.8,-0.4 19.2,-0.5c3.9,-0.1 7.8,0.3 11.7,0.1c8.3,-0.5 16.6,0 24.9,-0.5c6.4,-0.4 12.8,-0.5 19.2,-0.2c10.6,0.5 21.3,0.2 31.9,0.4c6.4,0.1 12.8,0 19.2,0c4,-0.1 7.9,0.2 12.4,0.4z"/>
     <path fill="#ffffff" id="svg_16" d="m273.8,691.5c0.8,-1 1.4,-0.8 1.9,-0.8c3.4,-0.1 6.9,-0.2 10.3,-0.2c3.3,-0.1 6.5,-0.3 9.8,-0.2c6.5,0.1 12.9,-0.6 19.4,-0.6c4.1,0 8.3,-0.4 12.4,-0.4c3.6,0.1 7.1,0.1 10.7,-0.2c2.3,-0.2 4.7,-0.2 7.1,0.1c3.1,0.4 6.2,-0.5 9.3,-0.5c0.4,0 0.8,-0.2 1.2,-0.2c3.8,0.8 7.6,-0.5 11.4,-0.1c5.7,0.5 11.5,-0.2 17.2,-0.1c1.6,0 3.2,0.1 4.8,0.3c1.7,0.3 3.4,0.3 5,-0.1c0.7,-0.2 1.4,-0.2 2.1,0c1.1,0.3 2.2,0.3 3.3,0.1c5,-0.6 10,-0.5 15.1,-0.4c2.6,0.1 5.3,-0.1 7.9,-0.2c4.5,-0.2 9,-0.4 13.6,0.1c2.8,0.3 5.6,0.1 8.4,0.1c6.1,0 12.3,-0.2 18.4,-0.6c5.4,-0.4 10.8,-0.5 16.2,-0.4c0.9,0 1.9,-0.1 2.8,0.3c-0.1,0.2 -0.1,0.5 -0.2,0.5c-3.5,1.5 -6.8,3.1 -10.7,3.3c-5.6,0.4 -11.2,0.3 -16.8,0.6c-5,0.3 -9.9,0 -14.8,-0.1c-7,-0.1 -13.9,0.3 -20.8,1c-5.9,0.6 -11.8,0.9 -17.7,0.9c-4.9,0 -9.7,0.2 -14.6,0.2c-3.7,0 -7.3,0.4 -11,0.5c-11.6,0.2 -23.2,0.6 -34.8,0.1c-2.2,-0.1 -4.5,0 -6.7,0c-3.8,0 -7.7,-0.2 -11.5,-0.3c-8,-0.2 -16,-0.1 -24,0.2c-5,0.2 -10.1,0.4 -15.1,-0.2c-3.2,-0.3 -6.2,-1.7 -9.6,-2.7z"/>
     <path fill="#ffffff" id="svg_17" d="m571.3,176.1c1.8,-0.1 3.4,0.1 5,-0.2c1.2,-0.3 1.9,0.5 2.7,1.2c5.3,4.9 10.5,9.8 15.4,15.1c8.5,9 16.5,18.3 23.8,28.2c2.1,2.9 2.1,3 -1.5,3.6c-1.1,0.2 -2.3,0.1 -3.3,0.5c-1.7,0.6 -2.6,-0.1 -3.6,-1.4c-2.8,-3.6 -5.6,-7.2 -8.5,-10.7c-10.2,-12.3 -21.3,-23.6 -33.4,-34c-0.6,-0.5 -1.7,-0.9 -1.4,-1.8c0.3,-0.9 1.4,-0.5 2.1,-0.5c0.9,-0.1 1.9,0 2.7,0z"/>
     <path fill="#ffffff" id="svg_18" d="m466.9,112.6c1,-0.4 1.8,0.1 2.5,0.3c21.6,7.2 42.2,16.6 61.7,28.4c2.2,1.4 2.3,1.8 0.2,3.3c-1.3,1 -2.7,1.7 -3.7,3c-0.9,1 -1.8,0.3 -2.6,-0.2c-3.4,-1.9 -6.8,-3.9 -10.2,-5.8c-11.1,-6.1 -22.5,-11.3 -34.3,-15.9c-1.6,-0.6 -3,-1.5 -4.2,-2.7c-3,-3.2 -6,-6.4 -9,-9.6c-0.2,-0.2 -0.3,-0.4 -0.4,-0.8z"/>
     <path fill="#ffffff" id="svg_19" d="m675.6,359.2c0.1,0.6 -0.4,1.2 -1,1.6c-1.9,1.2 -4,2 -5.6,3.6c-0.6,0.6 -1,-0.1 -1.1,-0.7c-0.3,-1.6 -0.5,-3.1 -0.8,-4.7c-1.7,-11.7 -4.1,-23.3 -7.2,-34.7c-0.9,-3.2 -0.8,-3.2 2.3,-4.6c0.9,-0.4 1.9,-0.9 2.8,-1.3c1.5,-0.7 1.7,-0.6 2.2,1c0.3,0.9 0.5,1.8 0.8,2.8c3,11.2 5.4,22.5 7.2,33.9c0.1,1 0.2,1.9 0.4,3.1z"/>
     <path fill="#ffffff" id="svg_20" d="m237.7,357.3c0.4,3.8 -1,6 -3.9,6.6c-1.5,0.3 -2.8,-0.2 -4.1,-0.9c-4,-1.9 -5.4,-4.8 -4.5,-9.2c0.4,-1.7 1.3,-2.8 2.9,-3.1c1.6,-0.4 3.3,-0.6 4.9,-0.8c1.1,-0.1 2.3,0.4 2.6,1.4c0.6,2.1 2.7,3.7 2.1,6z"/>
     <path fill="#ffffff" id="svg_21" d="m515.9,170.8c0.1,1.5 -0.3,2.9 -1.2,4.1c-0.9,1.3 -2.1,1.1 -2.7,-0.4c-0.2,-0.4 -0.2,-0.9 -0.3,-1.4c-0.6,-2.6 -1.7,-4.8 -3.9,-6.4c-0.4,-0.3 -0.9,-0.7 -1.2,-1.1c-0.6,-0.8 -0.5,-1.5 0.3,-2c1.1,-0.7 2.1,-1.4 3.2,-2c0.9,-0.5 1.9,-0.2 2.8,1.1c1.9,2.4 3,5.1 3,8.1z"/>
     <path fill="#ffffff" id="svg_22" d="m278.9,495.9c-5.1,-0.9 -10.1,-0.2 -14.9,0.3c-0.5,-0.8 0,-1.1 0.3,-1.4c2,-2.2 4.2,-4.1 6.5,-6c0.6,-0.5 1.2,-0.7 1.9,0c2.1,2.1 3.9,4.7 6.2,7.1z"/>
     <path fill="#ffffff" id="svg_23" d="m575.7,267.2c7.5,0 11.7,4.7 10.9,12.2c-0.1,1 -0.1,2.1 -0.2,3.1c-0.7,5.1 -3.2,8.9 -8.1,11c-0.7,0.3 -1.5,0.5 -2.3,0.5c-1.8,0 -2.7,-0.8 -2.9,-2.5c-0.1,-0.8 -0.1,-1.6 -0.1,-2.4c-0.2,-6.7 -0.3,-13.4 -0.9,-20.1c-0.1,-1 0.3,-1.5 1.2,-1.7c0.8,-0.1 1.6,0 2.4,-0.1zm6.8,10.9c0,-0.6 0,-1.1 0,-1.7c-0.1,-1.8 -0.8,-3.4 -1.9,-4.8c-0.8,-1.1 -2.8,-1.6 -3.9,-1c-1.1,0.6 -0.6,1.7 -0.6,2.6c-0.1,3.3 0.7,6.5 0.5,9.8c-0.1,1.8 0.2,3.7 0.3,5.5c0,0.5 0,1 0.6,1.2c0.5,0.1 0.9,-0.3 1.2,-0.7c0.2,-0.2 0.4,-0.5 0.6,-0.8c2.3,-3 3.2,-6.5 3.2,-10.1z"/>
     <path fill="#ffffff" id="svg_24" d="m606.8,287.9c0.6,-2.4 1.1,-4.9 1.4,-7.4c0.4,-3.3 0.9,-6.6 1.3,-10c0.1,-0.6 0.3,-1.3 0.5,-1.8c0.4,-1 1.2,-1.2 2.2,-1.1c1,0.2 1.5,0.8 1.5,1.8c0,0.5 -0.1,1 -0.2,1.4c-0.6,3.6 -0.8,7.3 -1.4,10.9c-0.8,4.5 -1.6,9.1 -2.9,13.6c-0.4,1.2 -1.1,1.6 -2.4,1.2c-1.3,-0.4 -1.9,-1.4 -2.3,-2.5c-1.5,-3.9 -3.1,-7.7 -4.6,-11.6c-1.2,-2.9 -2.7,-5.6 -4.1,-8.4c-0.3,-0.6 -0.5,-1.2 -0.8,-1.8c-0.2,-0.6 -0.5,-1.2 0.1,-1.8c0.6,-0.5 1.4,-0.5 2,-0.2c1.1,0.4 1.5,1.4 2,2.3c2.6,4.6 4.7,9.4 6.7,14.3c0.3,0.5 0.3,1 1,1.1z"/>
     <path fill="#ffffff" id="svg_25" d="m615.7,272.8c0,-0.9 -0.1,-1.8 0,-2.6c0.1,-1.3 0.6,-1.8 1.8,-1.6c2,0.3 4,-0.3 5.9,-0.5c1.1,-0.1 2.1,-0.1 3.1,0.3c0.7,0.2 1.1,0.7 1.1,1.4c0,0.8 -0.6,1 -1.3,1.1c-1.7,0.3 -3.3,0.5 -5,0.8c-1.6,0.3 -1.7,0.4 -1.6,2c0.1,1.4 0.3,2.7 0.3,4.1c0.1,1.1 0.6,1.3 1.6,1c1,-0.3 2,-0.7 3,-0.5c0.8,0.1 1.4,0.5 1.5,1.3c0.1,0.7 -0.4,1.2 -1,1.5c-1.1,0.6 -2.3,1.1 -3.6,1.2c-0.9,0.1 -1.5,0.5 -1.4,1.5c0.1,2.4 0.2,4.8 0.4,7.2c0.1,0.9 0.7,0.9 1.4,0.8c1.4,-0.1 2.9,-0.2 4.3,-0.2c0.6,0 1.1,0 1.7,0.2c0.6,0.2 1.1,0.6 1.1,1.4c0,0.7 -0.5,1 -1.1,1.1c-0.2,0.1 -0.3,0.1 -0.5,0.1c-2.8,0.3 -5.5,0.7 -8.3,0.8c-1.6,0.1 -2.4,-0.9 -2.6,-2.8c-0.4,-4.1 -0.7,-8.3 -0.6,-12.4c0.2,-2.3 -0.2,-4.7 -0.2,-7.2z"/>
     <path fill="#ffffff" id="svg_26" d="m643.7,288.1c0.1,2.6 -0.7,4.5 -2.9,5.5c-2.6,1.2 -5,0.8 -7.2,-0.9c-1.6,-1.2 -2.4,-2.9 -2.8,-4.9c-0.2,-0.9 -0.1,-1.8 1,-2.1c1.1,-0.3 1.9,0.2 2.3,1.2c0.3,0.7 0.4,1.4 0.6,2.1c0.6,1.7 1.8,2.5 3,2.2c1.5,-0.4 2.3,-1.8 2.2,-3.5c-0.2,-2.4 -1.5,-4.2 -3,-5.9c-1.2,-1.3 -2.5,-2.5 -3.7,-3.8c-1.2,-1.4 -2.4,-2.8 -2.6,-4.7c-0.2,-2.1 0.5,-3.8 2.4,-4.8c2.7,-1.6 6.2,-1.3 8.5,0.7c0.4,0.4 0.8,0.8 1.1,1.3c0.3,0.5 0.4,1.1 -0.1,1.5c-0.5,0.5 -1,0.4 -1.5,0.1c-0.6,-0.4 -1.2,-0.9 -1.7,-1.2c-1.4,-0.9 -2.6,-0.9 -3.8,0c-1,0.8 -1.3,2.2 -0.7,3.7c0.5,1.2 1.4,2.1 2.3,3c1.7,1.6 3.3,3.3 4.7,5.1c1.3,1.5 2,3.4 1.9,5.4z"/>
     <path fill="#ffffff" id="svg_27" d="m649.2,271.3c-1,0 -1.9,0.1 -2.8,-0.4c-0.6,-0.3 -1.1,-0.7 -1,-1.5c0.1,-0.8 0.7,-1 1.4,-1.1c2.4,-0.4 4.7,-0.7 7.1,-1c1.6,-0.2 3.2,-0.1 4.8,-0.4c1,-0.2 1.9,0 2.8,0.5c0.6,0.3 1,0.8 0.8,1.6c-0.2,0.6 -0.6,0.9 -1.2,1c-1.4,0.1 -2.9,0.3 -4.3,0.4c-1.1,0.1 -1.6,0.6 -1.4,1.7c0.8,4.2 0,8.5 0.8,12.7c0.6,2.9 0.3,5.9 1.1,8.8c0.2,0.7 0.3,1.5 -0.5,1.9c-0.8,0.5 -1.5,0.1 -2.2,-0.3c-1,-0.7 -1.3,-1.8 -1.4,-2.9c-0.5,-5.1 -1.4,-10.1 -1.4,-15.3c0,-1.1 0,-2.2 0,-3.4c-0.2,-1.9 -0.2,-2.8 -2.6,-2.3z"/>
     <path fill="#ffffff" id="svg_28" d="m588.8,279.4c0,-2.6 0,-5.3 0,-7.9c0,-1.8 0.4,-2.5 1.4,-2.6c1.1,-0.1 2.2,0.7 2.6,2c0.2,0.9 0.3,1.9 0.3,2.8c0.1,6.7 0.2,13.4 0.9,20.1c0.2,2 -0.3,2.8 -1.6,2.9c-1.5,0.1 -2.5,-0.9 -2.6,-2.8c-0.3,-4.8 -0.8,-9.6 -1,-14.5z"/>
     <path fill="#ffffff" id="svg_29" d="m672.5,268.9c-0.2,1.4 -0.3,2.9 -0.5,4.4c-0.6,3.9 -1.2,7.9 -1.8,11.8c-0.3,1.6 -0.9,2.1 -1.9,2c-1.2,-0.1 -2,-1.2 -1.8,-2.6c0.3,-2.9 0.8,-5.8 1.2,-8.8c0.4,-2.4 0.8,-4.9 1.3,-7.3c0.3,-1.8 0.8,-2.4 1.8,-2.3c1.1,0 1.7,0.9 1.7,2.8z"/>
     <path fill="#ffffff" id="svg_30" d="m666.2,294.9c-1.3,0 -2.4,-1.1 -2.4,-2.2c0.1,-1.4 1.2,-2.6 2.3,-2.6c1.5,0 3.2,1.3 3.2,2.4c-0.1,1.2 -1.7,2.4 -3.1,2.4z"/>
    </g>
   </g>
  </g>
 </g>
</svg>